<svg xmlns="http://www.w3.org/2000/svg" xmlns:xlink="http://www.w3.org/1999/xlink" preserveAspectRatio="xMidYMid meet" width="600" height="600" viewBox="0 0 600 600" style="width:100%;height:100%"><defs><animateTransform repeatCount="indefinite" dur="12s" begin="0s" xlink:href="#_R_G_L_13_G_L_3_G_N_1_T_0" fill="freeze" attributeName="transform" from="0" to="180" type="rotate" additive="sum" keyTimes="0;0.2083333;0.2916667;0.3333333;0.375;0.4583333;1" values="0;0;90;90;90;180;180" keySplines="0.693 0 0.103 1;0.693 0 0.103 1;0.333 0 0.667 1;0.333 0 0.667 1;0.693 0 0.103 1;0 0 0 0" calcMode="spline"/><animateTransform repeatCount="indefinite" dur="12s" begin="0s" xlink:href="#_R_G_L_13_G_L_2_G_N_1_T_0" fill="freeze" attributeName="transform" from="0" to="180" type="rotate" additive="sum" keyTimes="0;0.2083333;0.2916667;0.3333333;0.375;0.4583333;1" values="0;0;90;90;90;180;180" keySplines="0.693 0 0.103 1;0.693 0 0.103 1;0.333 0 0.667 1;0.333 0 0.667 1;0.693 0 0.103 1;0 0 0 0" calcMode="spline"/><animateTransform repeatCount="indefinite" dur="12s" begin="0s" xlink:href="#_R_G_L_13_G_L_1_G_N_1_T_0" fill="freeze" attributeName="transform" from="0" to="180" type="rotate" additive="sum" keyTimes="0;0.2083333;0.2916667;0.3333333;0.375;0.4583333;1" values="0;0;90;90;90;180;180" keySplines="0.693 0 0.103 1;0.693 0 0.103 1;0.333 0 0.667 1;0.333 0 0.667 1;0.693 0 0.103 1;0 0 0 0" calcMode="spline"/><animateTransform repeatCount="indefinite" dur="12s" begin="0s" xlink:href="#_R_G_L_13_G_L_0_G_N_1_T_0" fill="freeze" attributeName="transform" from="0" to="180" type="rotate" additive="sum" keyTimes="0;0.2083333;0.2916667;0.3333333;0.375;0.4583333;1" values="0;0;90;90;90;180;180" keySplines="0.693 0 0.103 1;0.693 0 0.103 1;0.333 0 0.667 1;0.333 0 0.667 1;0.693 0 0.103 1;0 0 0 0" calcMode="spline"/><animateTransform repeatCount="indefinite" dur="12s" begin="0s" xlink:href="#_R_G_L_12_G_L_11_G" fill="freeze" attributeName="transform" from="1 1" to="1 1" type="scale" additive="sum" keyTimes="0;0.7458333;0.8708333;0.9958333;1" values="1 1;1 1;0.33 0.33;1 1;1 1" keySplines="0.864 0 0.101 1;0.864 0 0.101 1;0.817 0 0.235 1;0 0 0 0" calcMode="spline"/><animateTransform repeatCount="indefinite" dur="12s" begin="0s" xlink:href="#_R_G_L_12_G_L_11_G" fill="freeze" attributeName="transform" from="-11 -6" to="-11 -6" type="translate" additive="sum" keyTimes="0;1" values="-11 -6;-11 -6" keySplines="0 0 1 1" calcMode="spline"/><animateTransform repeatCount="indefinite" dur="12s" begin="0s" xlink:href="#_R_G_L_12_G_L_10_G" fill="freeze" attributeName="transform" from="0.33 0.33" to="0.33 0.33" type="scale" additive="sum" keyTimes="0;0.7458333;0.8708333;0.9958333;1" values="0.33 0.33;0.33 0.33;1 1;0.33 0.33;0.33 0.33" keySplines="0.864 0 0.101 1;0.864 0 0.101 1;0.817 0 0.235 1;0 0 0 0" calcMode="spline"/><animateTransform repeatCount="indefinite" dur="12s" begin="0s" xlink:href="#_R_G_L_12_G_L_10_G" fill="freeze" attributeName="transform" from="-11 -6" to="-11 -6" type="translate" additive="sum" keyTimes="0;1" values="-11 -6;-11 -6" keySplines="0 0 1 1" calcMode="spline"/><animate repeatCount="indefinite" dur="12s" begin="0s" xlink:href="#_R_G_L_12_G_L_9_G" fill="freeze" attributeName="opacity" from="0" to="0" keyTimes="0;0.8083333;0.8291667;0.9125;0.9333333;1" values="0;0;1;1;0;0" keySplines="0.333 0 0.667 1;0.333 0 0.667 1;0.333 0 0.667 1;0.333 0 0.667 1;0 0 0 0" calcMode="spline"/><animateTransform repeatCount="indefinite" dur="12s" begin="0s" xlink:href="#_R_G_L_12_G_L_9_G" fill="freeze" attributeName="transform" from="1 1" to="1 1" type="scale" additive="sum" keyTimes="0;0.7458333;0.8708333;0.9958333;1" values="1 1;1 1;0.33 0.33;1 1;1 1" keySplines="0.864 0 0.101 1;0.864 0 0.101 1;0.788 0 0.136 1;0 0 0 0" calcMode="spline"/><animateTransform repeatCount="indefinite" dur="12s" begin="0s" xlink:href="#_R_G_L_12_G_L_9_G" fill="freeze" attributeName="transform" from="-11 -6" to="-11 -6" type="translate" additive="sum" keyTimes="0;1" values="-11 -6;-11 -6" keySplines="0 0 1 1" calcMode="spline"/><animate repeatCount="indefinite" dur="12s" begin="0s" xlink:href="#_R_G_L_12_G_L_9_G_N_13_T_0_M" fill="freeze" attributeName="opacity" from="0" to="1" keyTimes="0;0.0416667;0.0416668;1" values="0;0;1;1" keySplines="0 0 0 0;0 0 0 0;0 0 0 0" calcMode="spline"/><animateTransform repeatCount="indefinite" dur="12s" begin="0s" xlink:href="#_R_G_L_12_G_L_8_G" fill="freeze" attributeName="transform" from="1 1" to="1 1" type="scale" additive="sum" keyTimes="0;0.7458333;0.8708333;0.9958333;1" values="1 1;1 1;0.33 0.33;1 1;1 1" keySplines="0.864 0 0.101 1;0.864 0 0.101 1;0.817 0 0.235 1;0 0 0 0" calcMode="spline"/><animateTransform repeatCount="indefinite" dur="12s" begin="0s" xlink:href="#_R_G_L_12_G_L_8_G" fill="freeze" attributeName="transform" from="-11 -6" to="-11 -6" type="translate" additive="sum" keyTimes="0;1" values="-11 -6;-11 -6" keySplines="0 0 1 1" calcMode="spline"/><animateTransform repeatCount="indefinite" dur="12s" begin="0s" xlink:href="#_R_G_L_12_G_L_7_G" fill="freeze" attributeName="transform" from="0.33 0.33" to="0.33 0.33" type="scale" additive="sum" keyTimes="0;0.7458333;0.8708333;0.9958333;1" values="0.33 0.33;0.33 0.33;1 1;0.33 0.33;0.33 0.33" keySplines="0.864 0 0.101 1;0.864 0 0.101 1;0.817 0 0.235 1;0 0 0 0" calcMode="spline"/><animateTransform repeatCount="indefinite" dur="12s" begin="0s" xlink:href="#_R_G_L_12_G_L_7_G" fill="freeze" attributeName="transform" from="-11 -6" to="-11 -6" type="translate" additive="sum" keyTimes="0;1" values="-11 -6;-11 -6" keySplines="0 0 1 1" calcMode="spline"/><animate repeatCount="indefinite" dur="12s" begin="0s" xlink:href="#_R_G_L_12_G_L_6_G" fill="freeze" attributeName="opacity" from="0" to="0" keyTimes="0;0.8083333;0.8291667;0.9125;0.9333333;1" values="0;0;1;1;0;0" keySplines="0.333 0 0.667 1;0.333 0 0.667 1;0.333 0 0.667 1;0.333 0 0.667 1;0 0 0 0" calcMode="spline"/><animateTransform repeatCount="indefinite" dur="12s" begin="0s" xlink:href="#_R_G_L_12_G_L_6_G" fill="freeze" attributeName="transform" from="1 1" to="1 1" type="scale" additive="sum" keyTimes="0;0.7458333;0.8708333;0.9958333;1" values="1 1;1 1;0.33 0.33;1 1;1 1" keySplines="0.864 0 0.101 1;0.864 0 0.101 1;0.788 0 0.136 1;0 0 0 0" calcMode="spline"/><animateTransform repeatCount="indefinite" dur="12s" begin="0s" xlink:href="#_R_G_L_12_G_L_6_G" fill="freeze" attributeName="transform" from="-11 -6" to="-11 -6" type="translate" additive="sum" keyTimes="0;1" values="-11 -6;-11 -6" keySplines="0 0 1 1" calcMode="spline"/><animate repeatCount="indefinite" dur="12s" begin="0s" xlink:href="#_R_G_L_12_G_L_6_G_N_9_T_0_M" fill="freeze" attributeName="opacity" from="0" to="1" keyTimes="0;0.0416667;0.0416668;1" values="0;0;1;1" keySplines="0 0 0 0;0 0 0 0;0 0 0 0" calcMode="spline"/><animateTransform repeatCount="indefinite" dur="12s" begin="0s" xlink:href="#_R_G_L_12_G_L_5_G" fill="freeze" attributeName="transform" from="1 1" to="1 1" type="scale" additive="sum" keyTimes="0;0.7458333;0.8708333;0.9958333;1" values="1 1;1 1;0.33 0.33;1 1;1 1" keySplines="0.864 0 0.101 1;0.864 0 0.101 1;0.817 0 0.235 1;0 0 0 0" calcMode="spline"/><animateTransform repeatCount="indefinite" dur="12s" begin="0s" xlink:href="#_R_G_L_12_G_L_5_G" fill="freeze" attributeName="transform" from="-11 -6" to="-11 -6" type="translate" additive="sum" keyTimes="0;1" values="-11 -6;-11 -6" keySplines="0 0 1 1" calcMode="spline"/><animateTransform repeatCount="indefinite" dur="12s" begin="0s" xlink:href="#_R_G_L_12_G_L_4_G" fill="freeze" attributeName="transform" from="0.33 0.33" to="0.33 0.33" type="scale" additive="sum" keyTimes="0;0.7458333;0.8708333;0.9958333;1" values="0.33 0.33;0.33 0.33;1 1;0.33 0.33;0.33 0.33" keySplines="0.864 0 0.101 1;0.864 0 0.101 1;0.817 0 0.235 1;0 0 0 0" calcMode="spline"/><animateTransform repeatCount="indefinite" dur="12s" begin="0s" xlink:href="#_R_G_L_12_G_L_4_G" fill="freeze" attributeName="transform" from="-11 -6" to="-11 -6" type="translate" additive="sum" keyTimes="0;1" values="-11 -6;-11 -6" keySplines="0 0 1 1" calcMode="spline"/><animate repeatCount="indefinite" dur="12s" begin="0s" xlink:href="#_R_G_L_12_G_L_3_G" fill="freeze" attributeName="opacity" from="0" to="0" keyTimes="0;0.8083333;0.8291667;0.9125;0.9333333;1" values="0;0;1;1;0;0" keySplines="0.333 0 0.667 1;0.333 0 0.667 1;0.333 0 0.667 1;0.333 0 0.667 1;0 0 0 0" calcMode="spline"/><animateTransform repeatCount="indefinite" dur="12s" begin="0s" xlink:href="#_R_G_L_12_G_L_3_G" fill="freeze" attributeName="transform" from="1 1" to="1 1" type="scale" additive="sum" keyTimes="0;0.7458333;0.8708333;0.9958333;1" values="1 1;1 1;0.33 0.33;1 1;1 1" keySplines="0.864 0 0.101 1;0.864 0 0.101 1;0.788 0 0.136 1;0 0 0 0" calcMode="spline"/><animateTransform repeatCount="indefinite" dur="12s" begin="0s" xlink:href="#_R_G_L_12_G_L_3_G" fill="freeze" attributeName="transform" from="-11 -6" to="-11 -6" type="translate" additive="sum" keyTimes="0;1" values="-11 -6;-11 -6" keySplines="0 0 1 1" calcMode="spline"/><animate repeatCount="indefinite" dur="12s" begin="0s" xlink:href="#_R_G_L_12_G_L_3_G_N_5_T_0_M" fill="freeze" attributeName="opacity" from="0" to="1" keyTimes="0;0.0416667;0.0416668;1" values="0;0;1;1" keySplines="0 0 0 0;0 0 0 0;0 0 0 0" calcMode="spline"/><animateTransform repeatCount="indefinite" dur="12s" begin="0s" xlink:href="#_R_G_L_12_G_L_2_G" fill="freeze" attributeName="transform" from="1 1" to="1 1" type="scale" additive="sum" keyTimes="0;0.7458333;0.8708333;0.9958333;1" values="1 1;1 1;0.33 0.33;1 1;1 1" keySplines="0.864 0 0.101 1;0.864 0 0.101 1;0.817 0 0.235 1;0 0 0 0" calcMode="spline"/><animateTransform repeatCount="indefinite" dur="12s" begin="0s" xlink:href="#_R_G_L_12_G_L_2_G" fill="freeze" attributeName="transform" from="-11 -6" to="-11 -6" type="translate" additive="sum" keyTimes="0;1" values="-11 -6;-11 -6" keySplines="0 0 1 1" calcMode="spline"/><animateTransform repeatCount="indefinite" dur="12s" begin="0s" xlink:href="#_R_G_L_12_G_L_1_G" fill="freeze" attributeName="transform" from="0.33 0.33" to="0.33 0.33" type="scale" additive="sum" keyTimes="0;0.7458333;0.8708333;0.9958333;1" values="0.33 0.33;0.33 0.33;1 1;0.33 0.33;0.33 0.33" keySplines="0.864 0 0.101 1;0.864 0 0.101 1;0.817 0 0.235 1;0 0 0 0" calcMode="spline"/><animateTransform repeatCount="indefinite" dur="12s" begin="0s" xlink:href="#_R_G_L_12_G_L_1_G" fill="freeze" attributeName="transform" from="-11 -6" to="-11 -6" type="translate" additive="sum" keyTimes="0;1" values="-11 -6;-11 -6" keySplines="0 0 1 1" calcMode="spline"/><animate repeatCount="indefinite" dur="12s" begin="0s" xlink:href="#_R_G_L_12_G_L_0_G" fill="freeze" attributeName="opacity" from="0" to="0" keyTimes="0;0.8083333;0.8291667;0.9125;0.9333333;1" values="0;0;1;1;0;0" keySplines="0.333 0 0.667 1;0.333 0 0.667 1;0.333 0 0.667 1;0.333 0 0.667 1;0 0 0 0" calcMode="spline"/><animateTransform repeatCount="indefinite" dur="12s" begin="0s" xlink:href="#_R_G_L_12_G_L_0_G" fill="freeze" attributeName="transform" from="1 1" to="1 1" type="scale" additive="sum" keyTimes="0;0.7458333;0.8708333;0.9958333;1" values="1 1;1 1;0.33 0.33;1 1;1 1" keySplines="0.864 0 0.101 1;0.864 0 0.101 1;0.788 0 0.136 1;0 0 0 0" calcMode="spline"/><animateTransform repeatCount="indefinite" dur="12s" begin="0s" xlink:href="#_R_G_L_12_G_L_0_G" fill="freeze" attributeName="transform" from="-11 -6" to="-11 -6" type="translate" additive="sum" keyTimes="0;1" values="-11 -6;-11 -6" keySplines="0 0 1 1" calcMode="spline"/><animate repeatCount="indefinite" dur="12s" begin="0s" xlink:href="#_R_G_L_12_G_L_0_G_N_1_T_0_M" fill="freeze" attributeName="opacity" from="0" to="1" keyTimes="0;0.0416667;0.0416668;1" values="0;0;1;1" keySplines="0 0 0 0;0 0 0 0;0 0 0 0" calcMode="spline"/><animateTransform repeatCount="indefinite" dur="12s" begin="0s" xlink:href="#_R_G_L_11_G_L_1_G_N_1_T_0" fill="freeze" attributeName="transform" from="0" to="360" type="rotate" additive="sum" keyTimes="0;0.4236111;0.5069444;0.5486111;0.6319444;1" values="0;0;180;180;360;360" keySplines="0.832 0 0.063 1;0.832 0 0.063 1;0.333 0 0.833 1;0.795 0 0.071 1;0 0 0 0" calcMode="spline"/><animateTransform repeatCount="indefinite" dur="12s" begin="0s" xlink:href="#_R_G_L_11_G_L_0_G_N_1_T_0" fill="freeze" attributeName="transform" from="0" to="360" type="rotate" additive="sum" keyTimes="0;0.4236111;0.5069444;0.5486111;0.6319444;1" values="0;0;180;180;360;360" keySplines="0.832 0 0.063 1;0.832 0 0.063 1;0.333 0 0.833 1;0.795 0 0.071 1;0 0 0 0" calcMode="spline"/><animate repeatCount="indefinite" dur="12s" begin="0s" xlink:href="#_R_G_L_8_G_L_0_G_M" fill="freeze" attributeName="opacity" from="0" to="1" keyTimes="0;0.0416667;0.0416668;1" values="0;0;1;1" keySplines="0 0 0 0;0 0 0 0;0 0 0 0" calcMode="spline"/><animateTransform repeatCount="indefinite" dur="12s" begin="0s" xlink:href="#_R_G_L_7_G_L_3_G_N_1_T_0" fill="freeze" attributeName="transform" from="0" to="180" type="rotate" additive="sum" keyTimes="0;0.6208333;0.7041667;0.7458333;0.7875;0.8708333;1" values="0;0;90;90;90;180;180" keySplines="0.693 0 0.103 1;0.693 0 0.103 1;0.333 0 0.667 1;0.333 0 0.667 1;0.693 0 0.103 1;0 0 0 0" calcMode="spline"/><animateTransform repeatCount="indefinite" dur="12s" begin="0s" xlink:href="#_R_G_L_7_G_L_2_G_N_1_T_0" fill="freeze" attributeName="transform" from="0" to="180" type="rotate" additive="sum" keyTimes="0;0.6208333;0.7041667;0.7458333;0.7875;0.8708333;1" values="0;0;90;90;90;180;180" keySplines="0.693 0 0.103 1;0.693 0 0.103 1;0.333 0 0.667 1;0.333 0 0.667 1;0.693 0 0.103 1;0 0 0 0" calcMode="spline"/><animateTransform repeatCount="indefinite" dur="12s" begin="0s" xlink:href="#_R_G_L_7_G_L_1_G_N_1_T_0" fill="freeze" attributeName="transform" from="0" to="180" type="rotate" additive="sum" keyTimes="0;0.6208333;0.7041667;0.7458333;0.7875;0.8708333;1" values="0;0;90;90;90;180;180" keySplines="0.693 0 0.103 1;0.693 0 0.103 1;0.333 0 0.667 1;0.333 0 0.667 1;0.693 0 0.103 1;0 0 0 0" calcMode="spline"/><animateTransform repeatCount="indefinite" dur="12s" begin="0s" xlink:href="#_R_G_L_7_G_L_0_G_N_1_T_0" fill="freeze" attributeName="transform" from="0" to="180" type="rotate" additive="sum" keyTimes="0;0.6208333;0.7041667;0.7458333;0.7875;0.8708333;1" values="0;0;90;90;90;180;180" keySplines="0.693 0 0.103 1;0.693 0 0.103 1;0.333 0 0.667 1;0.333 0 0.667 1;0.693 0 0.103 1;0 0 0 0" calcMode="spline"/><animate repeatCount="indefinite" dur="12s" begin="0s" xlink:href="#_R_G_L_2_G_L_9_G_N_13_T_0_M" fill="freeze" attributeName="opacity" from="0" to="1" keyTimes="0;0.0416667;0.0416668;1" values="0;0;1;1" keySplines="0 0 0 0;0 0 0 0;0 0 0 0" calcMode="spline"/><animate repeatCount="indefinite" dur="12s" begin="0s" xlink:href="#_R_G_L_2_G_L_6_G_N_9_T_0_M" fill="freeze" attributeName="opacity" from="0" to="1" keyTimes="0;0.0416667;0.0416668;1" values="0;0;1;1" keySplines="0 0 0 0;0 0 0 0;0 0 0 0" calcMode="spline"/><animate repeatCount="indefinite" dur="12s" begin="0s" xlink:href="#_R_G_L_2_G_L_3_G_N_5_T_0_M" fill="freeze" attributeName="opacity" from="0" to="1" keyTimes="0;0.0416667;0.0416668;1" values="0;0;1;1" keySplines="0 0 0 0;0 0 0 0;0 0 0 0" calcMode="spline"/><animate repeatCount="indefinite" dur="12s" begin="0s" xlink:href="#_R_G_L_2_G_L_0_G_N_1_T_0_M" fill="freeze" attributeName="opacity" from="0" to="1" keyTimes="0;0.0416667;0.0416668;1" values="0;0;1;1" keySplines="0 0 0 0;0 0 0 0;0 0 0 0" calcMode="spline"/><animate repeatCount="indefinite" dur="12s" begin="0s" xlink:href="#_R_G_L_1_G_L_0_G_M" fill="freeze" attributeName="opacity" from="0" to="1" keyTimes="0;0.0416667;0.0416668;1" values="0;0;1;1" keySplines="0 0 0 0;0 0 0 0;0 0 0 0" calcMode="spline"/><animateTransform repeatCount="indefinite" dur="12s" begin="0s" xlink:href="#_R_G_L_0_G_L_3_G" fill="freeze" attributeName="transform" from="0" to="0" type="rotate" additive="sum" keyTimes="0;0.0777778;0.1305556;0.2083333;1" values="0;180;180;0;0" keySplines="0.652 0 0.109 1;0.333 0 0.833 1;0.761 0 0.215 1;0 0 0 0" calcMode="spline"/><animateTransform repeatCount="indefinite" dur="12s" begin="0s" xlink:href="#_R_G_L_0_G_L_3_G" fill="freeze" attributeName="transform" from="0.518 0.518" to="0.518 0.518" type="scale" additive="sum" keyTimes="0;1" values="0.518 0.518;0.518 0.518" keySplines="0 0 1 1" calcMode="spline"/><animateTransform repeatCount="indefinite" dur="12s" begin="0s" xlink:href="#_R_G_L_0_G_L_2_G" fill="freeze" attributeName="transform" from="-90" to="-90" type="rotate" additive="sum" keyTimes="0;0.0777778;0.1305556;0.2083333;1" values="-90;-270;-270;-90;-90" keySplines="0.712 0.34 0.109 1;0.422 0 0.833 1;0.761 0 0.215 1;0 0 0 0" calcMode="spline"/><animateTransform repeatCount="indefinite" dur="12s" begin="0s" xlink:href="#_R_G_L_0_G_L_2_G" fill="freeze" attributeName="transform" from="0.518 0.518" to="0.518 0.518" type="scale" additive="sum" keyTimes="0;1" values="0.518 0.518;0.518 0.518" keySplines="0 0 1 1" calcMode="spline"/><animateTransform repeatCount="indefinite" dur="12s" begin="0s" xlink:href="#_R_G_L_0_G_L_1_G" fill="freeze" attributeName="transform" from="-180" to="-180" type="rotate" additive="sum" keyTimes="0;0.0777778;0.1305556;0.2083333;1" values="-180;0;0;-180;-180" keySplines="0.652 0 0.109 1;0.333 0 0.833 1;0.761 0 0.215 1;0 0 0 0" calcMode="spline"/><animateTransform repeatCount="indefinite" dur="12s" begin="0s" xlink:href="#_R_G_L_0_G_L_1_G" fill="freeze" attributeName="transform" from="0.518 0.518" to="0.518 0.518" type="scale" additive="sum" keyTimes="0;1" values="0.518 0.518;0.518 0.518" keySplines="0 0 1 1" calcMode="spline"/><animateTransform repeatCount="indefinite" dur="12s" begin="0s" xlink:href="#_R_G_L_0_G_L_0_G" fill="freeze" attributeName="transform" from="-270" to="-270" type="rotate" additive="sum" keyTimes="0;0.0777778;0.1305556;0.2083333;1" values="-270;-90;-90;-270;-270" keySplines="0.652 0 0.109 1;0.333 0 0.833 1;0.761 0 0.215 1;0 0 0 0" calcMode="spline"/><animateTransform repeatCount="indefinite" dur="12s" begin="0s" xlink:href="#_R_G_L_0_G_L_0_G" fill="freeze" attributeName="transform" from="0.518 0.518" to="0.518 0.518" type="scale" additive="sum" keyTimes="0;1" values="0.518 0.518;0.518 0.518" keySplines="0 0 1 1" calcMode="spline"/><animate attributeType="XML" attributeName="opacity" dur="12s" from="0" to="1" xlink:href="#time_group"/></defs><g id="_R_G"><g id="_R_G_L_14_G_N_1_T_0" transform=" translate(401, 413) translate(0, 0)"><g id="_R_G_L_14_G" transform=" translate(-157.699, 33.904) rotate(90) scale(-0.205, 0.205) translate(-250, -250)"><g id="_R_G_L_14_G_L_4_G_N_1_T_0" transform=" translate(250.25, 250.249) translate(-50.25, -50.249)"><g id="_R_G_L_14_G_L_4_G" transform=" translate(49, 267.5) translate(1, -217.5)"><path id="_R_G_L_14_G_L_4_G_D_0_P_0" fill="#ffffff" fill-opacity="1" fill-rule="nonzero" d=" M248 185 C248,185 248,250 248,250 C248,250 -250,250 -250,250 C-250,250 -250,185 -250,185 C-250,185 248,185 248,185z "/><path id="_R_G_L_14_G_L_4_G_D_1_P_0" stroke="#ebc596" stroke-linecap="round" stroke-linejoin="round" fill="none" stroke-width="0" stroke-opacity="1" d=" M248 185 C248,185 248,250 248,250 C248,250 -250,250 -250,250 C-250,250 -250,185 -250,185 C-250,185 248,185 248,185z "/></g></g><g id="_R_G_L_14_G_L_3_G_N_1_T_0" transform=" translate(250.25, 250.249) translate(-50.25, -50.249)"><g id="_R_G_L_14_G_L_3_G" transform=" translate(49, 157.5) translate(1, -217.5)"><path id="_R_G_L_14_G_L_3_G_D_0_P_0" fill="#ebc596" fill-opacity="1" fill-rule="nonzero" d=" M248 185 C248,185 248,250 248,250 C248,250 -250,250 -250,250 C-250,250 -250,185 -250,185 C-250,185 248,185 248,185z "/><path id="_R_G_L_14_G_L_3_G_D_1_P_0" stroke="#ebc596" stroke-linecap="round" stroke-linejoin="round" fill="none" stroke-width="0" stroke-opacity="1" d=" M248 185 C248,185 248,250 248,250 C248,250 -250,250 -250,250 C-250,250 -250,185 -250,185 C-250,185 248,185 248,185z "/></g></g><g id="_R_G_L_14_G_L_2_G_N_1_T_0" transform=" translate(250.25, 250.249) translate(-50.25, -50.249)"><g id="_R_G_L_14_G_L_2_G" transform=" translate(49, 48.5) translate(1, -217.5)"><path id="_R_G_L_14_G_L_2_G_D_0_P_0" fill="#ffffff" fill-opacity="1" fill-rule="nonzero" d=" M248 185 C248,185 248,250 248,250 C248,250 -250,250 -250,250 C-250,250 -250,185 -250,185 C-250,185 248,185 248,185z "/><path id="_R_G_L_14_G_L_2_G_D_1_P_0" stroke="#ebc596" stroke-linecap="round" stroke-linejoin="round" fill="none" stroke-width="0" stroke-opacity="1" d=" M248 185 C248,185 248,250 248,250 C248,250 -250,250 -250,250 C-250,250 -250,185 -250,185 C-250,185 248,185 248,185z "/></g></g><g id="_R_G_L_14_G_L_1_G_N_1_T_0" transform=" translate(250.25, 250.249) translate(-50.25, -50.249)"><g id="_R_G_L_14_G_L_1_G" transform=" translate(49, -59.5) translate(1, -217.5)"><path id="_R_G_L_14_G_L_1_G_D_0_P_0" fill="#ebc596" fill-opacity="1" fill-rule="nonzero" d=" M248 185 C248,185 248,250 248,250 C248,250 -250,250 -250,250 C-250,250 -250,185 -250,185 C-250,185 248,185 248,185z "/><path id="_R_G_L_14_G_L_1_G_D_1_P_0" stroke="#ebc596" stroke-linecap="round" stroke-linejoin="round" fill="none" stroke-width="0" stroke-opacity="1" d=" M248 185 C248,185 248,250 248,250 C248,250 -250,250 -250,250 C-250,250 -250,185 -250,185 C-250,185 248,185 248,185z "/></g></g><g id="_R_G_L_14_G_L_0_G_N_1_T_0" transform=" translate(250.25, 250.249) translate(-50.25, -50.249)"><g id="_R_G_L_14_G_L_0_G" transform=" translate(49, -167.5) translate(1, -217.5)"><path id="_R_G_L_14_G_L_0_G_D_0_P_0" fill="#ffffff" fill-opacity="1" fill-rule="nonzero" d=" M248 185 C248,185 248,250 248,250 C248,250 -250,250 -250,250 C-250,250 -250,185 -250,185 C-250,185 248,185 248,185z "/><path id="_R_G_L_14_G_L_0_G_D_1_P_0" stroke="#ebc596" stroke-linecap="round" stroke-linejoin="round" fill="none" stroke-width="0" stroke-opacity="1" d=" M248 185 C248,185 248,250 248,250 C248,250 -250,250 -250,250 C-250,250 -250,185 -250,185 C-250,185 248,185 248,185z "/></g></g></g></g><g id="_R_G_L_13_G" transform=" translate(443.25, 345.75) scale(0.205, 0.205) translate(-250, -250)"><g id="_R_G_L_13_G_L_3_G_N_1_T_0" transform=" translate(250, 250)"><g id="_R_G_L_13_G_L_3_G" transform=" translate(125.384, 125.384) rotate(180) scale(0.518, 0.518) translate(0, 0)"><path id="_R_G_L_13_G_L_3_G_D_0_P_0" fill="#ebc596" fill-opacity="1" fill-rule="nonzero" d=" M-240.92 -240.92 C-240.92,-240.92 -240.92,240.92 -240.92,240.92 C25.19,240.92 240.92,25.19 240.92,-240.92 C240.92,-240.92 -240.92,-240.92 -240.92,-240.92z "/><path id="_R_G_L_13_G_L_3_G_D_1_P_0" stroke="#ebc596" stroke-linecap="round" stroke-linejoin="round" fill="none" stroke-width="0" stroke-opacity="1" d=" M-240.92 -240.92 C-240.92,-240.92 -240.92,240.92 -240.92,240.92 C25.19,240.92 240.92,25.19 240.92,-240.92 C240.92,-240.92 -240.92,-240.92 -240.92,-240.92z "/></g></g><g id="_R_G_L_13_G_L_2_G_N_1_T_0" transform=" translate(250, 250)"><g id="_R_G_L_13_G_L_2_G" transform=" translate(125.384, -125.384) rotate(-270) scale(0.518, 0.518) translate(0, 0)"><path id="_R_G_L_13_G_L_2_G_D_0_P_0" fill="#ffffff" fill-opacity="1" fill-rule="nonzero" d=" M-240.92 -240.92 C-240.92,-240.92 -240.92,240.92 -240.92,240.92 C25.19,240.92 240.92,25.19 240.92,-240.92 C240.92,-240.92 -240.92,-240.92 -240.92,-240.92z "/><path id="_R_G_L_13_G_L_2_G_D_1_P_0" stroke="#ebc596" stroke-linecap="round" stroke-linejoin="round" fill="none" stroke-width="0" stroke-opacity="1" d=" M-240.92 -240.92 C-240.92,-240.92 -240.92,240.92 -240.92,240.92 C25.19,240.92 240.92,25.19 240.92,-240.92 C240.92,-240.92 -240.92,-240.92 -240.92,-240.92z "/></g></g><g id="_R_G_L_13_G_L_1_G_N_1_T_0" transform=" translate(250, 250)"><g id="_R_G_L_13_G_L_1_G" transform=" translate(-125.384, -125.384) scale(0.518, 0.518) translate(0, 0)"><path id="_R_G_L_13_G_L_1_G_D_0_P_0" fill="#ebc596" fill-opacity="1" fill-rule="nonzero" d=" M-240.92 -240.92 C-240.92,-240.92 -240.92,240.92 -240.92,240.92 C25.19,240.92 240.92,25.19 240.92,-240.92 C240.92,-240.92 -240.92,-240.92 -240.92,-240.92z "/><path id="_R_G_L_13_G_L_1_G_D_1_P_0" stroke="#ebc596" stroke-linecap="round" stroke-linejoin="round" fill="none" stroke-width="0" stroke-opacity="1" d=" M-240.92 -240.92 C-240.92,-240.92 -240.92,240.92 -240.92,240.92 C25.19,240.92 240.92,25.19 240.92,-240.92 C240.92,-240.92 -240.92,-240.92 -240.92,-240.92z "/></g></g><g id="_R_G_L_13_G_L_0_G_N_1_T_0" transform=" translate(250, 250)"><g id="_R_G_L_13_G_L_0_G" transform=" translate(-125.384, 125.384) rotate(-90) scale(0.518, 0.518) translate(0, 0)"><path id="_R_G_L_13_G_L_0_G_D_0_P_0" fill="#ffffff" fill-opacity="1" fill-rule="nonzero" d=" M-240.92 -240.92 C-240.92,-240.92 -240.92,240.92 -240.92,240.92 C25.19,240.92 240.92,25.19 240.92,-240.92 C240.92,-240.92 -240.92,-240.92 -240.92,-240.92z "/><path id="_R_G_L_13_G_L_0_G_D_1_P_0" stroke="#ebc596" stroke-linecap="round" stroke-linejoin="round" fill="none" stroke-width="0" stroke-opacity="1" d=" M-240.92 -240.92 C-240.92,-240.92 -240.92,240.92 -240.92,240.92 C25.19,240.92 240.92,25.19 240.92,-240.92 C240.92,-240.92 -240.92,-240.92 -240.92,-240.92z "/></g></g></g><g id="_R_G_L_12_G_N_1_T_0" transform=" translate(401, 413) translate(0, 0)"><g id="_R_G_L_12_G" transform=" translate(-259.696, 132.998) scale(0.205, 0.205) translate(-250, -250)"><g id="_R_G_L_12_G_L_11_G_N_13_T_0" transform=" translate(374.5, 374) scale(0.508, 0.508) translate(0, 0)"><g id="_R_G_L_12_G_L_11_G" transform=" translate(0, 0)"><path id="_R_G_L_12_G_L_11_G_D_0_P_0" fill="#87603c" fill-opacity="1" fill-rule="nonzero" d=" M11 -240 C146.77,-240 257,-129.77 257,6 C257,141.77 146.77,252 11,252 C-124.77,252 -235,141.77 -235,6 C-235,-129.77 -124.77,-240 11,-240z "/><path id="_R_G_L_12_G_L_11_G_D_1_P_0" stroke="#ff00a2" stroke-linecap="round" stroke-linejoin="round" fill="none" stroke-width="0" stroke-opacity="1" d=" M11 -240 C146.77,-240 257,-129.77 257,6 C257,141.77 146.77,252 11,252 C-124.77,252 -235,141.77 -235,6 C-235,-129.77 -124.77,-240 11,-240z "/></g></g><g id="_R_G_L_12_G_L_10_G_N_13_T_0" transform=" translate(374.5, 374) scale(0.508, 0.508) translate(0, 0)"><g id="_R_G_L_12_G_L_10_G" transform=" translate(0, 0)"><path id="_R_G_L_12_G_L_10_G_D_0_P_0" fill="#ebc596" fill-opacity="1" fill-rule="nonzero" d=" M11 -240 C146.77,-240 257,-129.77 257,6 C257,141.77 146.77,252 11,252 C-124.77,252 -235,141.77 -235,6 C-235,-129.77 -124.77,-240 11,-240z "/><path id="_R_G_L_12_G_L_10_G_D_1_P_0" stroke="#ff00a2" stroke-linecap="round" stroke-linejoin="round" fill="none" stroke-width="0" stroke-opacity="1" d=" M11 -240 C146.77,-240 257,-129.77 257,6 C257,141.77 146.77,252 11,252 C-124.77,252 -235,141.77 -235,6 C-235,-129.77 -124.77,-240 11,-240z "/></g></g><g id="_R_G_L_12_G_L_9_G_N_13_T_0_M"><g id="_R_G_L_12_G_L_9_G_N_13_T_0" transform=" translate(374.5, 374) scale(0.508, 0.508) translate(0, 0)"><g id="_R_G_L_12_G_L_9_G" transform=" translate(0, 0)"><path id="_R_G_L_12_G_L_9_G_D_0_P_0" fill="#87603c" fill-opacity="1" fill-rule="nonzero" d=" M11 -240 C146.77,-240 257,-129.77 257,6 C257,141.77 146.77,252 11,252 C-124.77,252 -235,141.77 -235,6 C-235,-129.77 -124.77,-240 11,-240z "/><path id="_R_G_L_12_G_L_9_G_D_1_P_0" stroke="#ff00a2" stroke-linecap="round" stroke-linejoin="round" fill="none" stroke-width="0" stroke-opacity="1" d=" M11 -240 C146.77,-240 257,-129.77 257,6 C257,141.77 146.77,252 11,252 C-124.77,252 -235,141.77 -235,6 C-235,-129.77 -124.77,-240 11,-240z "/></g></g></g><g id="_R_G_L_12_G_L_8_G_N_9_T_0" transform=" translate(373.5, 126) scale(0.508, 0.508) translate(0, 0)"><g id="_R_G_L_12_G_L_8_G" transform=" translate(0, 0)"><path id="_R_G_L_12_G_L_8_G_D_0_P_0" fill="#87603c" fill-opacity="1" fill-rule="nonzero" d=" M11 -240 C146.77,-240 257,-129.77 257,6 C257,141.77 146.77,252 11,252 C-124.77,252 -235,141.77 -235,6 C-235,-129.77 -124.77,-240 11,-240z "/><path id="_R_G_L_12_G_L_8_G_D_1_P_0" stroke="#ff00a2" stroke-linecap="round" stroke-linejoin="round" fill="none" stroke-width="0" stroke-opacity="1" d=" M11 -240 C146.77,-240 257,-129.77 257,6 C257,141.77 146.77,252 11,252 C-124.77,252 -235,141.77 -235,6 C-235,-129.77 -124.77,-240 11,-240z "/></g></g><g id="_R_G_L_12_G_L_7_G_N_9_T_0" transform=" translate(373.5, 126) scale(0.508, 0.508) translate(0, 0)"><g id="_R_G_L_12_G_L_7_G" transform=" translate(0, 0)"><path id="_R_G_L_12_G_L_7_G_D_0_P_0" fill="#ebc596" fill-opacity="1" fill-rule="nonzero" d=" M11 -240 C146.77,-240 257,-129.77 257,6 C257,141.77 146.77,252 11,252 C-124.77,252 -235,141.77 -235,6 C-235,-129.77 -124.77,-240 11,-240z "/><path id="_R_G_L_12_G_L_7_G_D_1_P_0" stroke="#ff00a2" stroke-linecap="round" stroke-linejoin="round" fill="none" stroke-width="0" stroke-opacity="1" d=" M11 -240 C146.77,-240 257,-129.77 257,6 C257,141.77 146.77,252 11,252 C-124.77,252 -235,141.77 -235,6 C-235,-129.77 -124.77,-240 11,-240z "/></g></g><g id="_R_G_L_12_G_L_6_G_N_9_T_0_M"><g id="_R_G_L_12_G_L_6_G_N_9_T_0" transform=" translate(373.5, 126) scale(0.508, 0.508) translate(0, 0)"><g id="_R_G_L_12_G_L_6_G" transform=" translate(0, 0)"><path id="_R_G_L_12_G_L_6_G_D_0_P_0" fill="#87603c" fill-opacity="1" fill-rule="nonzero" d=" M11 -240 C146.77,-240 257,-129.77 257,6 C257,141.77 146.77,252 11,252 C-124.77,252 -235,141.77 -235,6 C-235,-129.77 -124.77,-240 11,-240z "/><path id="_R_G_L_12_G_L_6_G_D_1_P_0" stroke="#ff00a2" stroke-linecap="round" stroke-linejoin="round" fill="none" stroke-width="0" stroke-opacity="1" d=" M11 -240 C146.77,-240 257,-129.77 257,6 C257,141.77 146.77,252 11,252 C-124.77,252 -235,141.77 -235,6 C-235,-129.77 -124.77,-240 11,-240z "/></g></g></g><g id="_R_G_L_12_G_L_5_G_N_5_T_0" transform=" translate(127, 374) scale(0.508, 0.508) translate(0, 0)"><g id="_R_G_L_12_G_L_5_G" transform=" translate(0, 0)"><path id="_R_G_L_12_G_L_5_G_D_0_P_0" fill="#87603c" fill-opacity="1" fill-rule="nonzero" d=" M11 -240 C146.77,-240 257,-129.77 257,6 C257,141.77 146.77,252 11,252 C-124.77,252 -235,141.77 -235,6 C-235,-129.77 -124.77,-240 11,-240z "/><path id="_R_G_L_12_G_L_5_G_D_1_P_0" stroke="#ff00a2" stroke-linecap="round" stroke-linejoin="round" fill="none" stroke-width="0" stroke-opacity="1" d=" M11 -240 C146.77,-240 257,-129.77 257,6 C257,141.77 146.77,252 11,252 C-124.77,252 -235,141.77 -235,6 C-235,-129.77 -124.77,-240 11,-240z "/></g></g><g id="_R_G_L_12_G_L_4_G_N_5_T_0" transform=" translate(127, 374) scale(0.508, 0.508) translate(0, 0)"><g id="_R_G_L_12_G_L_4_G" transform=" translate(0, 0)"><path id="_R_G_L_12_G_L_4_G_D_0_P_0" fill="#ebc596" fill-opacity="1" fill-rule="nonzero" d=" M11 -240 C146.77,-240 257,-129.77 257,6 C257,141.77 146.77,252 11,252 C-124.77,252 -235,141.77 -235,6 C-235,-129.77 -124.77,-240 11,-240z "/><path id="_R_G_L_12_G_L_4_G_D_1_P_0" stroke="#ff00a2" stroke-linecap="round" stroke-linejoin="round" fill="none" stroke-width="0" stroke-opacity="1" d=" M11 -240 C146.77,-240 257,-129.77 257,6 C257,141.77 146.77,252 11,252 C-124.77,252 -235,141.77 -235,6 C-235,-129.77 -124.77,-240 11,-240z "/></g></g><g id="_R_G_L_12_G_L_3_G_N_5_T_0_M"><g id="_R_G_L_12_G_L_3_G_N_5_T_0" transform=" translate(127, 374) scale(0.508, 0.508) translate(0, 0)"><g id="_R_G_L_12_G_L_3_G" transform=" translate(0, 0)"><path id="_R_G_L_12_G_L_3_G_D_0_P_0" fill="#87603c" fill-opacity="1" fill-rule="nonzero" d=" M11 -240 C146.77,-240 257,-129.77 257,6 C257,141.77 146.77,252 11,252 C-124.77,252 -235,141.77 -235,6 C-235,-129.77 -124.77,-240 11,-240z "/><path id="_R_G_L_12_G_L_3_G_D_1_P_0" stroke="#ff00a2" stroke-linecap="round" stroke-linejoin="round" fill="none" stroke-width="0" stroke-opacity="1" d=" M11 -240 C146.77,-240 257,-129.77 257,6 C257,141.77 146.77,252 11,252 C-124.77,252 -235,141.77 -235,6 C-235,-129.77 -124.77,-240 11,-240z "/></g></g></g><g id="_R_G_L_12_G_L_2_G_N_1_T_0" transform=" translate(125.5, 125) scale(0.508, 0.508) translate(0, 0)"><g id="_R_G_L_12_G_L_2_G" transform=" translate(0, 0)"><path id="_R_G_L_12_G_L_2_G_D_0_P_0" fill="#87603c" fill-opacity="1" fill-rule="nonzero" d=" M11 -240 C146.77,-240 257,-129.77 257,6 C257,141.77 146.77,252 11,252 C-124.77,252 -235,141.77 -235,6 C-235,-129.77 -124.77,-240 11,-240z "/><path id="_R_G_L_12_G_L_2_G_D_1_P_0" stroke="#ff00a2" stroke-linecap="round" stroke-linejoin="round" fill="none" stroke-width="0" stroke-opacity="1" d=" M11 -240 C146.77,-240 257,-129.77 257,6 C257,141.77 146.77,252 11,252 C-124.77,252 -235,141.77 -235,6 C-235,-129.77 -124.77,-240 11,-240z "/></g></g><g id="_R_G_L_12_G_L_1_G_N_1_T_0" transform=" translate(125.5, 125) scale(0.508, 0.508) translate(0, 0)"><g id="_R_G_L_12_G_L_1_G" transform=" translate(0, 0)"><path id="_R_G_L_12_G_L_1_G_D_0_P_0" fill="#ebc596" fill-opacity="1" fill-rule="nonzero" d=" M11 -240 C146.77,-240 257,-129.77 257,6 C257,141.77 146.77,252 11,252 C-124.77,252 -235,141.77 -235,6 C-235,-129.77 -124.77,-240 11,-240z "/><path id="_R_G_L_12_G_L_1_G_D_1_P_0" stroke="#ff00a2" stroke-linecap="round" stroke-linejoin="round" fill="none" stroke-width="0" stroke-opacity="1" d=" M11 -240 C146.77,-240 257,-129.77 257,6 C257,141.77 146.77,252 11,252 C-124.77,252 -235,141.77 -235,6 C-235,-129.77 -124.77,-240 11,-240z "/></g></g><g id="_R_G_L_12_G_L_0_G_N_1_T_0_M"><g id="_R_G_L_12_G_L_0_G_N_1_T_0" transform=" translate(125.5, 125) scale(0.508, 0.508) translate(0, 0)"><g id="_R_G_L_12_G_L_0_G" transform=" translate(0, 0)"><path id="_R_G_L_12_G_L_0_G_D_0_P_0" fill="#87603c" fill-opacity="1" fill-rule="nonzero" d=" M11 -240 C146.77,-240 257,-129.77 257,6 C257,141.77 146.77,252 11,252 C-124.77,252 -235,141.77 -235,6 C-235,-129.77 -124.77,-240 11,-240z "/><path id="_R_G_L_12_G_L_0_G_D_1_P_0" stroke="#ff00a2" stroke-linecap="round" stroke-linejoin="round" fill="none" stroke-width="0" stroke-opacity="1" d=" M11 -240 C146.77,-240 257,-129.77 257,6 C257,141.77 146.77,252 11,252 C-124.77,252 -235,141.77 -235,6 C-235,-129.77 -124.77,-240 11,-240z "/></g></g></g></g></g><g id="_R_G_L_11_G_N_1_T_0" transform=" translate(401, 413) translate(0, 0)"><g id="_R_G_L_11_G" transform=" translate(47, 35.75) scale(-0.205, -0.205) translate(-250, -250)"><g id="_R_G_L_11_G_L_1_G_N_1_T_0" transform=" translate(250, 250)"><g id="_R_G_L_11_G_L_1_G" transform=" translate(0.25, 0.25) translate(-154.372, -152.587)"><path id="_R_G_L_11_G_L_1_G_D_0_P_0" fill="#ffffff" fill-opacity="1" fill-rule="nonzero" d=" M154.13 304.42 C154.13,304.42 154.13,304.42 154.13,304.42 C69.14,304.42 0.25,235.53 0.25,150.55 C0.25,150.55 0.25,0.25 0.25,0.25 C85.23,0.25 154.13,69.14 154.13,154.13 C154.13,154.13 154.13,304.42 154.13,304.42z "/></g></g><g id="_R_G_L_11_G_L_0_G_N_1_T_0" transform=" translate(250, 250)"><g id="_R_G_L_11_G_L_0_G" transform=" translate(0.25, 0.25) translate(-0.496, -152.587)"><path id="_R_G_L_11_G_L_0_G_D_0_P_0" fill="#ebc596" fill-opacity="1" fill-rule="nonzero" d=" M0.25 304.42 C0.25,304.42 0.25,304.42 0.25,304.42 C85.23,304.42 154.13,235.53 154.13,150.55 C154.13,150.55 154.13,0.25 154.13,0.25 C69.14,0.25 0.25,69.14 0.25,154.13 C0.25,154.13 0.25,304.42 0.25,304.42z "/></g></g></g></g><g id="_R_G_L_10_G_N_1_T_0" transform=" translate(401, 413) translate(0, 0)"><g id="_R_G_L_10_G" transform=" translate(-156.75, 135.25) scale(0.205, 0.205) translate(-250, -250)"><g id="_R_G_L_10_G_L_15_G_N_1_T_0" transform=" translate(250, 250) translate(0, 0)"><g id="_R_G_L_10_G_L_15_G" transform=" translate(194.29, 194.29) translate(-36.96, -36.96)"><path id="_R_G_L_10_G_L_15_G_D_0_P_0" fill="#87603c" fill-opacity="1" fill-rule="nonzero" d=" M73.67 36.96 C73.67,57.24 57.23,73.67 36.96,73.67 C16.69,73.67 0.25,57.24 0.25,36.96 C0.25,16.69 16.69,0.25 36.96,0.25 C57.23,0.25 73.67,16.69 73.67,36.96z "/></g></g><g id="_R_G_L_10_G_L_14_G_N_1_T_0" transform=" translate(250, 250) translate(0, 0)"><g id="_R_G_L_10_G_L_14_G" transform=" translate(64.763, 194.29) translate(-36.96, -36.96)"><path id="_R_G_L_10_G_L_14_G_D_0_P_0" fill="#ebc596" fill-opacity="1" fill-rule="nonzero" d=" M73.67 36.96 C73.67,57.24 57.24,73.67 36.96,73.67 C16.69,73.67 0.25,57.24 0.25,36.96 C0.25,16.69 16.69,0.25 36.96,0.25 C57.24,0.25 73.67,16.69 73.67,36.96z "/></g></g><g id="_R_G_L_10_G_L_13_G_N_1_T_0" transform=" translate(250, 250) translate(0, 0)"><g id="_R_G_L_10_G_L_13_G" transform=" translate(-64.763, 194.29) translate(-36.96, -36.96)"><path id="_R_G_L_10_G_L_13_G_D_0_P_0" fill="#87603c" fill-opacity="1" fill-rule="nonzero" d=" M73.67 36.96 C73.67,57.24 57.24,73.67 36.96,73.67 C16.69,73.67 0.25,57.24 0.25,36.96 C0.25,16.69 16.69,0.25 36.96,0.25 C57.24,0.25 73.67,16.69 73.67,36.96z "/></g></g><g id="_R_G_L_10_G_L_12_G_N_1_T_0" transform=" translate(250, 250) translate(0, 0)"><g id="_R_G_L_10_G_L_12_G" transform=" translate(-194.29, 194.29) translate(-36.96, -36.96)"><path id="_R_G_L_10_G_L_12_G_D_0_P_0" fill="#ebc596" fill-opacity="1" fill-rule="nonzero" d=" M73.67 36.96 C73.67,57.24 57.24,73.67 36.96,73.67 C16.69,73.67 0.25,57.24 0.25,36.96 C0.25,16.69 16.69,0.25 36.96,0.25 C57.24,0.25 73.67,16.69 73.67,36.96z "/></g></g><g id="_R_G_L_10_G_L_11_G_N_1_T_0" transform=" translate(250, 250) translate(0, 0)"><g id="_R_G_L_10_G_L_11_G" transform=" translate(194.29, 64.764) translate(-36.96, -36.96)"><path id="_R_G_L_10_G_L_11_G_D_0_P_0" fill="#87603c" fill-opacity="1" fill-rule="nonzero" d=" M73.67 36.96 C73.67,57.23 57.23,73.67 36.96,73.67 C16.69,73.67 0.25,57.23 0.25,36.96 C0.25,16.69 16.69,0.25 36.96,0.25 C57.23,0.25 73.67,16.69 73.67,36.96z "/></g></g><g id="_R_G_L_10_G_L_10_G_N_1_T_0" transform=" translate(250, 250) translate(0, 0)"><g id="_R_G_L_10_G_L_10_G" transform=" translate(64.763, 64.764) translate(-36.96, -36.96)"><path id="_R_G_L_10_G_L_10_G_D_0_P_0" fill="#ebc596" fill-opacity="1" fill-rule="nonzero" d=" M73.67 36.96 C73.67,57.23 57.24,73.67 36.96,73.67 C16.69,73.67 0.25,57.23 0.25,36.96 C0.25,16.69 16.69,0.25 36.96,0.25 C57.24,0.25 73.67,16.69 73.67,36.96z "/></g></g><g id="_R_G_L_10_G_L_9_G_N_1_T_0" transform=" translate(250, 250) translate(0, 0)"><g id="_R_G_L_10_G_L_9_G" transform=" translate(-64.763, 64.764) translate(-36.96, -36.96)"><path id="_R_G_L_10_G_L_9_G_D_0_P_0" fill="#ebc596" fill-opacity="1" fill-rule="nonzero" d=" M73.67 36.96 C73.67,57.23 57.24,73.67 36.96,73.67 C16.69,73.67 0.25,57.23 0.25,36.96 C0.25,16.69 16.69,0.25 36.96,0.25 C57.24,0.25 73.67,16.69 73.67,36.96z "/></g></g><g id="_R_G_L_10_G_L_8_G_N_1_T_0" transform=" translate(250, 250) translate(0, 0)"><g id="_R_G_L_10_G_L_8_G" transform=" translate(-194.29, 64.764) translate(-36.96, -36.96)"><path id="_R_G_L_10_G_L_8_G_D_0_P_0" fill="#87603c" fill-opacity="1" fill-rule="nonzero" d=" M73.67 36.96 C73.67,57.23 57.24,73.67 36.96,73.67 C16.69,73.67 0.25,57.23 0.25,36.96 C0.25,16.69 16.69,0.25 36.96,0.25 C57.24,0.25 73.67,16.69 73.67,36.96z "/></g></g><g id="_R_G_L_10_G_L_7_G_N_1_T_0" transform=" translate(250, 250) translate(0, 0)"><g id="_R_G_L_10_G_L_7_G" transform=" translate(194.29, -64.763) translate(-36.96, -36.96)"><path id="_R_G_L_10_G_L_7_G_D_0_P_0" fill="#87603c" fill-opacity="1" fill-rule="nonzero" d=" M73.67 36.96 C73.67,57.24 57.23,73.67 36.96,73.67 C16.69,73.67 0.25,57.24 0.25,36.96 C0.25,16.69 16.69,0.25 36.96,0.25 C57.23,0.25 73.67,16.69 73.67,36.96z "/></g></g><g id="_R_G_L_10_G_L_6_G_N_1_T_0" transform=" translate(250, 250) translate(0, 0)"><g id="_R_G_L_10_G_L_6_G" transform=" translate(64.763, -64.763) translate(-36.96, -36.96)"><path id="_R_G_L_10_G_L_6_G_D_0_P_0" fill="#ebc596" fill-opacity="1" fill-rule="nonzero" d=" M73.67 36.96 C73.67,57.24 57.24,73.67 36.96,73.67 C16.69,73.67 0.25,57.24 0.25,36.96 C0.25,16.69 16.69,0.25 36.96,0.25 C57.24,0.25 73.67,16.69 73.67,36.96z "/></g></g><g id="_R_G_L_10_G_L_5_G_N_1_T_0" transform=" translate(250, 250) translate(0, 0)"><g id="_R_G_L_10_G_L_5_G" transform=" translate(-64.763, -64.763) translate(-36.96, -36.96)"><path id="_R_G_L_10_G_L_5_G_D_0_P_0" fill="#87603c" fill-opacity="1" fill-rule="nonzero" d=" M73.67 36.96 C73.67,57.24 57.24,73.67 36.96,73.67 C16.69,73.67 0.25,57.24 0.25,36.96 C0.25,16.69 16.69,0.25 36.96,0.25 C57.24,0.25 73.67,16.69 73.67,36.96z "/></g></g><g id="_R_G_L_10_G_L_4_G_N_1_T_0" transform=" translate(250, 250) translate(0, 0)"><g id="_R_G_L_10_G_L_4_G" transform=" translate(-194.29, -64.763) translate(-36.96, -36.96)"><path id="_R_G_L_10_G_L_4_G_D_0_P_0" fill="#ebc596" fill-opacity="1" fill-rule="nonzero" d=" M73.67 36.96 C73.67,57.24 57.24,73.67 36.96,73.67 C16.69,73.67 0.25,57.24 0.25,36.96 C0.25,16.69 16.69,0.25 36.96,0.25 C57.24,0.25 73.67,16.69 73.67,36.96z "/></g></g><g id="_R_G_L_10_G_L_3_G_N_1_T_0" transform=" translate(250, 250) translate(0, 0)"><g id="_R_G_L_10_G_L_3_G" transform=" translate(194.29, -194.29) translate(-36.96, -36.96)"><path id="_R_G_L_10_G_L_3_G_D_0_P_0" fill="#ebc596" fill-opacity="1" fill-rule="nonzero" d=" M73.67 36.96 C73.67,57.24 57.23,73.67 36.96,73.67 C16.69,73.67 0.25,57.24 0.25,36.96 C0.25,16.69 16.69,0.25 36.96,0.25 C57.23,0.25 73.67,16.69 73.67,36.96z "/></g></g><g id="_R_G_L_10_G_L_2_G_N_1_T_0" transform=" translate(250, 250) translate(0, 0)"><g id="_R_G_L_10_G_L_2_G" transform=" translate(64.763, -194.29) translate(-36.96, -36.96)"><path id="_R_G_L_10_G_L_2_G_D_0_P_0" fill="#87603c" fill-opacity="1" fill-rule="nonzero" d=" M73.67 36.96 C73.67,57.24 57.24,73.67 36.96,73.67 C16.69,73.67 0.25,57.24 0.25,36.96 C0.25,16.69 16.69,0.25 36.96,0.25 C57.24,0.25 73.67,16.69 73.67,36.96z "/></g></g><g id="_R_G_L_10_G_L_1_G_N_1_T_0" transform=" translate(250, 250) translate(0, 0)"><g id="_R_G_L_10_G_L_1_G" transform=" translate(-64.763, -194.29) translate(-36.96, -36.96)"><path id="_R_G_L_10_G_L_1_G_D_0_P_0" fill="#ebc596" fill-opacity="1" fill-rule="nonzero" d=" M73.67 36.96 C73.67,57.24 57.24,73.67 36.96,73.67 C16.69,73.67 0.25,57.24 0.25,36.96 C0.25,16.69 16.69,0.25 36.96,0.25 C57.24,0.25 73.67,16.69 73.67,36.96z "/></g></g><g id="_R_G_L_10_G_L_0_G_N_1_T_0" transform=" translate(250, 250) translate(0, 0)"><g id="_R_G_L_10_G_L_0_G" transform=" translate(-194.29, -194.29) translate(-36.96, -36.96)"><path id="_R_G_L_10_G_L_0_G_D_0_P_0" fill="#ebc596" fill-opacity="1" fill-rule="nonzero" d=" M73.67 36.96 C73.67,57.24 57.24,73.67 36.96,73.67 C16.69,73.67 0.25,57.24 0.25,36.96 C0.25,16.69 16.69,0.25 36.96,0.25 C57.24,0.25 73.67,16.69 73.67,36.96z "/></g></g></g></g><g id="_R_G_L_9_G_N_1_T_0" transform=" translate(401, 413) translate(0, 0)"><g id="_R_G_L_9_G" transform=" translate(-53.75, 33.75) scale(0.205, 0.205) translate(-250, -250)"><g id="_R_G_L_9_G_L_1_G" transform=" translate(250, 250) translate(-0.5, 1.5)"><path id="_R_G_L_9_G_L_1_G_D_0_P_0" fill="#87603c" fill-opacity="1" fill-rule="nonzero" d=" M0.5 -84 C46.03,-84 83,-47.03 83,-1.5 C83,44.03 46.03,81 0.5,81 C-45.03,81 -82,44.03 -82,-1.5 C-82,-47.03 -45.03,-84 0.5,-84z "/><path id="_R_G_L_9_G_L_1_G_D_1_P_0" stroke="#ebc596" stroke-linecap="round" stroke-linejoin="round" fill="none" stroke-width="0" stroke-opacity="1" d=" M0.5 -84 C46.03,-84 83,-47.03 83,-1.5 C83,44.03 46.03,81 0.5,81 C-45.03,81 -82,44.03 -82,-1.5 C-82,-47.03 -45.03,-84 0.5,-84z "/></g><g id="_R_G_L_9_G_L_0_G" transform=" translate(250, 250) scale(0.655, 0.655) translate(-16.5, -21.5)"><path id="_R_G_L_9_G_L_0_G_D_0_P_0" stroke="#ebc596" stroke-linecap="round" stroke-linejoin="round" fill="none" stroke-width="163" stroke-opacity="1" d=" M16.5 -271 C177.93,-271 309,-139.93 309,21.5 C309,182.93 177.93,314 16.5,314 C-144.93,314 -276,182.93 -276,21.5 C-276,-139.93 -144.93,-271 16.5,-271z "/></g></g></g><g id="_R_G_L_8_G_N_1_T_0" transform=" translate(401, 413) translate(0, 0)"><g id="_R_G_L_8_G" transform=" translate(46.75, 134.75) scale(0.205, 0.205) translate(-250, -250)"><g id="_R_G_L_8_G_L_2_G" transform=" translate(250, 250) scale(0.99572, 0.99572) translate(-11, -6)"><path id="_R_G_L_8_G_L_2_G_D_0_P_0" fill="#ebc596" fill-opacity="1" fill-rule="nonzero" d=" M11 -240 C146.77,-240 257,-129.77 257,6 C257,141.77 146.77,252 11,252 C-124.77,252 -235,141.77 -235,6 C-235,-129.77 -124.77,-240 11,-240z "/><path id="_R_G_L_8_G_L_2_G_D_1_P_0" stroke="#ff00a2" stroke-linecap="round" stroke-linejoin="round" fill="none" stroke-width="0" stroke-opacity="1" d=" M11 -240 C146.77,-240 257,-129.77 257,6 C257,141.77 146.77,252 11,252 C-124.77,252 -235,141.77 -235,6 C-235,-129.77 -124.77,-240 11,-240z "/></g><g id="_R_G_L_8_G_L_1_G" transform=" translate(250, 250) scale(0.33427999999999997, 0.33427999999999997) translate(-11, -6)"><path id="_R_G_L_8_G_L_1_G_D_0_P_0" fill="#87603c" fill-opacity="1" fill-rule="nonzero" d=" M11 -240 C146.77,-240 257,-129.77 257,6 C257,141.77 146.77,252 11,252 C-124.77,252 -235,141.77 -235,6 C-235,-129.77 -124.77,-240 11,-240z "/><path id="_R_G_L_8_G_L_1_G_D_1_P_0" stroke="#ff00a2" stroke-linecap="round" stroke-linejoin="round" fill="none" stroke-width="0" stroke-opacity="1" d=" M11 -240 C146.77,-240 257,-129.77 257,6 C257,141.77 146.77,252 11,252 C-124.77,252 -235,141.77 -235,6 C-235,-129.77 -124.77,-240 11,-240z "/></g><g id="_R_G_L_8_G_L_0_G_M"><g id="_R_G_L_8_G_L_0_G" opacity="0" transform=" translate(250, 250) scale(0.99572, 0.99572) translate(-11, -6)"><path id="_R_G_L_8_G_L_0_G_D_0_P_0" fill="#ebc596" fill-opacity="1" fill-rule="nonzero" d=" M11 -240 C146.77,-240 257,-129.77 257,6 C257,141.77 146.77,252 11,252 C-124.77,252 -235,141.77 -235,6 C-235,-129.77 -124.77,-240 11,-240z "/><path id="_R_G_L_8_G_L_0_G_D_1_P_0" stroke="#ff00a2" stroke-linecap="round" stroke-linejoin="round" fill="none" stroke-width="0" stroke-opacity="1" d=" M11 -240 C146.77,-240 257,-129.77 257,6 C257,141.77 146.77,252 11,252 C-124.77,252 -235,141.77 -235,6 C-235,-129.77 -124.77,-240 11,-240z "/></g></g></g></g><g id="_R_G_L_7_G_N_1_T_0" transform=" translate(401, 413) translate(0, 0)"><g id="_R_G_L_7_G" transform=" translate(-51.727, 136.428) scale(0.205, 0.205) translate(-250, -250)"><g id="_R_G_L_7_G_L_3_G_N_1_T_0" transform=" translate(250, 250)"><g id="_R_G_L_7_G_L_3_G" transform=" translate(125.384, 125.384) rotate(180) scale(0.518, 0.518) translate(0, 0)"><path id="_R_G_L_7_G_L_3_G_D_0_P_0" fill="#ebc596" fill-opacity="1" fill-rule="nonzero" d=" M-240.92 -240.92 C-240.92,-240.92 -240.92,240.92 -240.92,240.92 C25.19,240.92 240.92,25.19 240.92,-240.92 C240.92,-240.92 -240.92,-240.92 -240.92,-240.92z "/><path id="_R_G_L_7_G_L_3_G_D_1_P_0" stroke="#ebc596" stroke-linecap="round" stroke-linejoin="round" fill="none" stroke-width="0" stroke-opacity="1" d=" M-240.92 -240.92 C-240.92,-240.92 -240.92,240.92 -240.92,240.92 C25.19,240.92 240.92,25.19 240.92,-240.92 C240.92,-240.92 -240.92,-240.92 -240.92,-240.92z "/></g></g><g id="_R_G_L_7_G_L_2_G_N_1_T_0" transform=" translate(250, 250)"><g id="_R_G_L_7_G_L_2_G" transform=" translate(125.384, -125.384) rotate(-270) scale(0.518, 0.518) translate(0, 0)"><path id="_R_G_L_7_G_L_2_G_D_0_P_0" fill="#ffffff" fill-opacity="1" fill-rule="nonzero" d=" M-240.92 -240.92 C-240.92,-240.92 -240.92,240.92 -240.92,240.92 C25.19,240.92 240.92,25.19 240.92,-240.92 C240.92,-240.92 -240.92,-240.92 -240.92,-240.92z "/><path id="_R_G_L_7_G_L_2_G_D_1_P_0" stroke="#ebc596" stroke-linecap="round" stroke-linejoin="round" fill="none" stroke-width="0" stroke-opacity="1" d=" M-240.92 -240.92 C-240.92,-240.92 -240.92,240.92 -240.92,240.92 C25.19,240.92 240.92,25.19 240.92,-240.92 C240.92,-240.92 -240.92,-240.92 -240.92,-240.92z "/></g></g><g id="_R_G_L_7_G_L_1_G_N_1_T_0" transform=" translate(250, 250)"><g id="_R_G_L_7_G_L_1_G" transform=" translate(-125.384, -125.384) scale(0.518, 0.518) translate(0, 0)"><path id="_R_G_L_7_G_L_1_G_D_0_P_0" fill="#ebc596" fill-opacity="1" fill-rule="nonzero" d=" M-240.92 -240.92 C-240.92,-240.92 -240.92,240.92 -240.92,240.92 C25.19,240.92 240.92,25.19 240.92,-240.92 C240.92,-240.92 -240.92,-240.92 -240.92,-240.92z "/><path id="_R_G_L_7_G_L_1_G_D_1_P_0" stroke="#ebc596" stroke-linecap="round" stroke-linejoin="round" fill="none" stroke-width="0" stroke-opacity="1" d=" M-240.92 -240.92 C-240.92,-240.92 -240.92,240.92 -240.92,240.92 C25.19,240.92 240.92,25.19 240.92,-240.92 C240.92,-240.92 -240.92,-240.92 -240.92,-240.92z "/></g></g><g id="_R_G_L_7_G_L_0_G_N_1_T_0" transform=" translate(250, 250)"><g id="_R_G_L_7_G_L_0_G" transform=" translate(-125.384, 125.384) rotate(-90) scale(0.518, 0.518) translate(0, 0)"><path id="_R_G_L_7_G_L_0_G_D_0_P_0" fill="#ffffff" fill-opacity="1" fill-rule="nonzero" d=" M-240.92 -240.92 C-240.92,-240.92 -240.92,240.92 -240.92,240.92 C25.19,240.92 240.92,25.19 240.92,-240.92 C240.92,-240.92 -240.92,-240.92 -240.92,-240.92z "/><path id="_R_G_L_7_G_L_0_G_D_1_P_0" stroke="#ebc596" stroke-linecap="round" stroke-linejoin="round" fill="none" stroke-width="0" stroke-opacity="1" d=" M-240.92 -240.92 C-240.92,-240.92 -240.92,240.92 -240.92,240.92 C25.19,240.92 240.92,25.19 240.92,-240.92 C240.92,-240.92 -240.92,-240.92 -240.92,-240.92z "/></g></g></g></g><g id="_R_G_L_6_G_N_1_T_0" transform=" translate(401, 413) translate(0, 0)"><g id="_R_G_L_6_G" transform=" translate(149.222, 33.496) scale(-0.205, 0.205) translate(-250, -250)"><g id="_R_G_L_6_G_L_15_G_N_1_T_0" transform=" translate(250, 250) translate(0, 0)"><g id="_R_G_L_6_G_L_15_G" transform=" translate(194.29, 194.29) translate(-36.96, -36.96)"><path id="_R_G_L_6_G_L_15_G_D_0_P_0" fill="#87603c" fill-opacity="1" fill-rule="nonzero" d=" M73.67 36.96 C73.67,57.24 57.23,73.67 36.96,73.67 C16.69,73.67 0.25,57.24 0.25,36.96 C0.25,16.69 16.69,0.25 36.96,0.25 C57.23,0.25 73.67,16.69 73.67,36.96z "/></g></g><g id="_R_G_L_6_G_L_14_G_N_1_T_0" transform=" translate(250, 250) translate(0, 0)"><g id="_R_G_L_6_G_L_14_G" transform=" translate(64.763, 194.29) translate(-36.96, -36.96)"><path id="_R_G_L_6_G_L_14_G_D_0_P_0" fill="#ebc596" fill-opacity="1" fill-rule="nonzero" d=" M73.67 36.96 C73.67,57.24 57.24,73.67 36.96,73.67 C16.69,73.67 0.25,57.24 0.25,36.96 C0.25,16.69 16.69,0.25 36.96,0.25 C57.24,0.25 73.67,16.69 73.67,36.96z "/></g></g><g id="_R_G_L_6_G_L_13_G_N_1_T_0" transform=" translate(250, 250) translate(0, 0)"><g id="_R_G_L_6_G_L_13_G" transform=" translate(-64.763, 194.29) translate(-36.96, -36.96)"><path id="_R_G_L_6_G_L_13_G_D_0_P_0" fill="#87603c" fill-opacity="1" fill-rule="nonzero" d=" M73.67 36.96 C73.67,57.24 57.24,73.67 36.96,73.67 C16.69,73.67 0.25,57.24 0.25,36.96 C0.25,16.69 16.69,0.25 36.96,0.25 C57.24,0.25 73.67,16.69 73.67,36.96z "/></g></g><g id="_R_G_L_6_G_L_12_G_N_1_T_0" transform=" translate(250, 250) translate(0, 0)"><g id="_R_G_L_6_G_L_12_G" transform=" translate(-194.29, 194.29) translate(-36.96, -36.96)"><path id="_R_G_L_6_G_L_12_G_D_0_P_0" fill="#ebc596" fill-opacity="1" fill-rule="nonzero" d=" M73.67 36.96 C73.67,57.24 57.24,73.67 36.96,73.67 C16.69,73.67 0.25,57.24 0.25,36.96 C0.25,16.69 16.69,0.25 36.96,0.25 C57.24,0.25 73.67,16.69 73.67,36.96z "/></g></g><g id="_R_G_L_6_G_L_11_G_N_1_T_0" transform=" translate(250, 250) translate(0, 0)"><g id="_R_G_L_6_G_L_11_G" transform=" translate(194.29, 64.764) translate(-36.96, -36.96)"><path id="_R_G_L_6_G_L_11_G_D_0_P_0" fill="#87603c" fill-opacity="1" fill-rule="nonzero" d=" M73.67 36.96 C73.67,57.23 57.23,73.67 36.96,73.67 C16.69,73.67 0.25,57.23 0.25,36.96 C0.25,16.69 16.69,0.25 36.96,0.25 C57.23,0.25 73.67,16.69 73.67,36.96z "/></g></g><g id="_R_G_L_6_G_L_10_G_N_1_T_0" transform=" translate(250, 250) translate(0, 0)"><g id="_R_G_L_6_G_L_10_G" transform=" translate(64.763, 64.764) translate(-36.96, -36.96)"><path id="_R_G_L_6_G_L_10_G_D_0_P_0" fill="#ebc596" fill-opacity="1" fill-rule="nonzero" d=" M73.67 36.96 C73.67,57.23 57.24,73.67 36.96,73.67 C16.69,73.67 0.25,57.23 0.25,36.96 C0.25,16.69 16.69,0.25 36.96,0.25 C57.24,0.25 73.67,16.69 73.67,36.96z "/></g></g><g id="_R_G_L_6_G_L_9_G_N_1_T_0" transform=" translate(250, 250) translate(0, 0)"><g id="_R_G_L_6_G_L_9_G" transform=" translate(-64.763, 64.764) translate(-36.96, -36.96)"><path id="_R_G_L_6_G_L_9_G_D_0_P_0" fill="#ebc596" fill-opacity="1" fill-rule="nonzero" d=" M73.67 36.96 C73.67,57.23 57.24,73.67 36.96,73.67 C16.69,73.67 0.25,57.23 0.25,36.96 C0.25,16.69 16.69,0.25 36.96,0.25 C57.24,0.25 73.67,16.69 73.67,36.96z "/></g></g><g id="_R_G_L_6_G_L_8_G_N_1_T_0" transform=" translate(250, 250) translate(0, 0)"><g id="_R_G_L_6_G_L_8_G" transform=" translate(-194.29, 64.764) translate(-36.96, -36.96)"><path id="_R_G_L_6_G_L_8_G_D_0_P_0" fill="#87603c" fill-opacity="1" fill-rule="nonzero" d=" M73.67 36.96 C73.67,57.23 57.24,73.67 36.96,73.67 C16.69,73.67 0.25,57.23 0.25,36.96 C0.25,16.69 16.69,0.25 36.96,0.25 C57.24,0.25 73.67,16.69 73.67,36.96z "/></g></g><g id="_R_G_L_6_G_L_7_G_N_1_T_0" transform=" translate(250, 250) translate(0, 0)"><g id="_R_G_L_6_G_L_7_G" transform=" translate(194.29, -64.763) translate(-36.96, -36.96)"><path id="_R_G_L_6_G_L_7_G_D_0_P_0" fill="#87603c" fill-opacity="1" fill-rule="nonzero" d=" M73.67 36.96 C73.67,57.24 57.23,73.67 36.96,73.67 C16.69,73.67 0.25,57.24 0.25,36.96 C0.25,16.69 16.69,0.25 36.96,0.25 C57.23,0.25 73.67,16.69 73.67,36.96z "/></g></g><g id="_R_G_L_6_G_L_6_G_N_1_T_0" transform=" translate(250, 250) translate(0, 0)"><g id="_R_G_L_6_G_L_6_G" transform=" translate(64.763, -64.763) translate(-36.96, -36.96)"><path id="_R_G_L_6_G_L_6_G_D_0_P_0" fill="#ebc596" fill-opacity="1" fill-rule="nonzero" d=" M73.67 36.96 C73.67,57.24 57.24,73.67 36.96,73.67 C16.69,73.67 0.25,57.24 0.25,36.96 C0.25,16.69 16.69,0.25 36.96,0.25 C57.24,0.25 73.67,16.69 73.67,36.96z "/></g></g><g id="_R_G_L_6_G_L_5_G_N_1_T_0" transform=" translate(250, 250) translate(0, 0)"><g id="_R_G_L_6_G_L_5_G" transform=" translate(-64.763, -64.763) translate(-36.96, -36.96)"><path id="_R_G_L_6_G_L_5_G_D_0_P_0" fill="#87603c" fill-opacity="1" fill-rule="nonzero" d=" M73.67 36.96 C73.67,57.24 57.24,73.67 36.96,73.67 C16.69,73.67 0.25,57.24 0.25,36.96 C0.25,16.69 16.69,0.25 36.96,0.25 C57.24,0.25 73.67,16.69 73.67,36.96z "/></g></g><g id="_R_G_L_6_G_L_4_G_N_1_T_0" transform=" translate(250, 250) translate(0, 0)"><g id="_R_G_L_6_G_L_4_G" transform=" translate(-194.29, -64.763) translate(-36.96, -36.96)"><path id="_R_G_L_6_G_L_4_G_D_0_P_0" fill="#ebc596" fill-opacity="1" fill-rule="nonzero" d=" M73.67 36.96 C73.67,57.24 57.24,73.67 36.96,73.67 C16.69,73.67 0.25,57.24 0.25,36.96 C0.25,16.69 16.69,0.25 36.96,0.25 C57.24,0.25 73.67,16.69 73.67,36.96z "/></g></g><g id="_R_G_L_6_G_L_3_G_N_1_T_0" transform=" translate(250, 250) translate(0, 0)"><g id="_R_G_L_6_G_L_3_G" transform=" translate(194.29, -194.29) translate(-36.96, -36.96)"><path id="_R_G_L_6_G_L_3_G_D_0_P_0" fill="#ebc596" fill-opacity="1" fill-rule="nonzero" d=" M73.67 36.96 C73.67,57.24 57.23,73.67 36.96,73.67 C16.69,73.67 0.25,57.24 0.25,36.96 C0.25,16.69 16.69,0.25 36.96,0.25 C57.23,0.25 73.67,16.69 73.67,36.96z "/></g></g><g id="_R_G_L_6_G_L_2_G_N_1_T_0" transform=" translate(250, 250) translate(0, 0)"><g id="_R_G_L_6_G_L_2_G" transform=" translate(64.763, -194.29) translate(-36.96, -36.96)"><path id="_R_G_L_6_G_L_2_G_D_0_P_0" fill="#87603c" fill-opacity="1" fill-rule="nonzero" d=" M73.67 36.96 C73.67,57.24 57.24,73.67 36.96,73.67 C16.69,73.67 0.25,57.24 0.25,36.96 C0.25,16.69 16.69,0.25 36.96,0.25 C57.24,0.25 73.67,16.69 73.67,36.96z "/></g></g><g id="_R_G_L_6_G_L_1_G_N_1_T_0" transform=" translate(250, 250) translate(0, 0)"><g id="_R_G_L_6_G_L_1_G" transform=" translate(-64.763, -194.29) translate(-36.96, -36.96)"><path id="_R_G_L_6_G_L_1_G_D_0_P_0" fill="#ebc596" fill-opacity="1" fill-rule="nonzero" d=" M73.67 36.96 C73.67,57.24 57.24,73.67 36.96,73.67 C16.69,73.67 0.25,57.24 0.25,36.96 C0.25,16.69 16.69,0.25 36.96,0.25 C57.24,0.25 73.67,16.69 73.67,36.96z "/></g></g><g id="_R_G_L_6_G_L_0_G_N_1_T_0" transform=" translate(250, 250) translate(0, 0)"><g id="_R_G_L_6_G_L_0_G" transform=" translate(-194.29, -194.29) translate(-36.96, -36.96)"><path id="_R_G_L_6_G_L_0_G_D_0_P_0" fill="#ebc596" fill-opacity="1" fill-rule="nonzero" d=" M73.67 36.96 C73.67,57.24 57.24,73.67 36.96,73.67 C16.69,73.67 0.25,57.24 0.25,36.96 C0.25,16.69 16.69,0.25 36.96,0.25 C57.24,0.25 73.67,16.69 73.67,36.96z "/></g></g></g></g><g id="_R_G_L_5_G_N_1_T_0" transform=" translate(401, 413) translate(0, 0)"><g id="_R_G_L_5_G" transform=" translate(147.25, 135) scale(0.205, 0.205) translate(-250, -250)"><g id="_R_G_L_5_G_L_3_G" transform=" translate(375.384, 375.384) scale(0.518, 0.518) translate(0, 0)"><path id="_R_G_L_5_G_L_3_G_D_0_P_0" fill="#ebc596" fill-opacity="1" fill-rule="nonzero" d=" M-240.92 -240.92 C-240.92,-240.92 -240.92,240.92 -240.92,240.92 C25.19,240.92 240.92,25.19 240.92,-240.92 C240.92,-240.92 -240.92,-240.92 -240.92,-240.92z "/><path id="_R_G_L_5_G_L_3_G_D_1_P_0" stroke="#ebc596" stroke-linecap="round" stroke-linejoin="round" fill="none" stroke-width="0" stroke-opacity="1" d=" M-240.92 -240.92 C-240.92,-240.92 -240.92,240.92 -240.92,240.92 C25.19,240.92 240.92,25.19 240.92,-240.92 C240.92,-240.92 -240.92,-240.92 -240.92,-240.92z "/></g><g id="_R_G_L_5_G_L_2_G" transform=" translate(375.384, 124.616) rotate(-90) scale(0.518, 0.518) translate(0, 0)"><path id="_R_G_L_5_G_L_2_G_D_0_P_0" fill="#ffffff" fill-opacity="1" fill-rule="nonzero" d=" M-240.92 -240.92 C-240.92,-240.92 -240.92,240.92 -240.92,240.92 C25.19,240.92 240.92,25.19 240.92,-240.92 C240.92,-240.92 -240.92,-240.92 -240.92,-240.92z "/><path id="_R_G_L_5_G_L_2_G_D_1_P_0" stroke="#ebc596" stroke-linecap="round" stroke-linejoin="round" fill="none" stroke-width="0" stroke-opacity="1" d=" M-240.92 -240.92 C-240.92,-240.92 -240.92,240.92 -240.92,240.92 C25.19,240.92 240.92,25.19 240.92,-240.92 C240.92,-240.92 -240.92,-240.92 -240.92,-240.92z "/></g><g id="_R_G_L_5_G_L_1_G" transform=" translate(124.616, 124.616) rotate(-180) scale(0.518, 0.518) translate(0, 0)"><path id="_R_G_L_5_G_L_1_G_D_0_P_0" fill="#ebc596" fill-opacity="1" fill-rule="nonzero" d=" M-240.92 -240.92 C-240.92,-240.92 -240.92,240.92 -240.92,240.92 C25.19,240.92 240.92,25.19 240.92,-240.92 C240.92,-240.92 -240.92,-240.92 -240.92,-240.92z "/><path id="_R_G_L_5_G_L_1_G_D_1_P_0" stroke="#ebc596" stroke-linecap="round" stroke-linejoin="round" fill="none" stroke-width="0" stroke-opacity="1" d=" M-240.92 -240.92 C-240.92,-240.92 -240.92,240.92 -240.92,240.92 C25.19,240.92 240.92,25.19 240.92,-240.92 C240.92,-240.92 -240.92,-240.92 -240.92,-240.92z "/></g><g id="_R_G_L_5_G_L_0_G" transform=" translate(124.616, 375.384) rotate(-270) scale(0.518, 0.518) translate(0, 0)"><path id="_R_G_L_5_G_L_0_G_D_0_P_0" fill="#ffffff" fill-opacity="1" fill-rule="nonzero" d=" M-240.92 -240.92 C-240.92,-240.92 -240.92,240.92 -240.92,240.92 C25.19,240.92 240.92,25.19 240.92,-240.92 C240.92,-240.92 -240.92,-240.92 -240.92,-240.92z "/><path id="_R_G_L_5_G_L_0_G_D_1_P_0" stroke="#ebc596" stroke-linecap="round" stroke-linejoin="round" fill="none" stroke-width="0" stroke-opacity="1" d=" M-240.92 -240.92 C-240.92,-240.92 -240.92,240.92 -240.92,240.92 C25.19,240.92 240.92,25.19 240.92,-240.92 C240.92,-240.92 -240.92,-240.92 -240.92,-240.92z "/></g></g></g><g id="_R_G_L_4_G_N_1_T_0" transform=" translate(401, 413) translate(0, 0)"><g id="_R_G_L_4_G" transform=" translate(-57, -66.75) scale(0.205, 0.205) translate(-250, -250)"><g id="_R_G_L_4_G_L_1_G_N_1_T_0" transform=" translate(250, 250) translate(0, 0)"><g id="_R_G_L_4_G_L_1_G" transform=" translate(0.25, 0.25) translate(-154.372, -152.587)"><path id="_R_G_L_4_G_L_1_G_D_0_P_0" fill="#ffffff" fill-opacity="1" fill-rule="nonzero" d=" M154.13 304.42 C154.13,304.42 154.13,304.42 154.13,304.42 C69.14,304.42 0.25,235.53 0.25,150.55 C0.25,150.55 0.25,0.25 0.25,0.25 C85.23,0.25 154.13,69.14 154.13,154.13 C154.13,154.13 154.13,304.42 154.13,304.42z "/></g></g><g id="_R_G_L_4_G_L_0_G_N_1_T_0" transform=" translate(250, 250) translate(0, 0)"><g id="_R_G_L_4_G_L_0_G" transform=" translate(0.25, 0.25) translate(-0.496, -152.587)"><path id="_R_G_L_4_G_L_0_G_D_0_P_0" fill="#ebc596" fill-opacity="1" fill-rule="nonzero" d=" M0.25 304.42 C0.25,304.42 0.25,304.42 0.25,304.42 C85.23,304.42 154.13,235.53 154.13,150.55 C154.13,150.55 154.13,0.25 154.13,0.25 C69.14,0.25 0.25,69.14 0.25,154.13 C0.25,154.13 0.25,304.42 0.25,304.42z "/></g></g></g></g><g id="_R_G_L_3_G_N_1_T_0" transform=" translate(401, 413) translate(0, 0)"><g id="_R_G_L_3_G" transform=" translate(147.5, -67.25) scale(0.205, 0.205) translate(-250, -250)"><g id="_R_G_L_3_G_L_4_G_N_1_T_0" transform=" translate(250.25, 250.249) translate(-50.25, -50.249)"><g id="_R_G_L_3_G_L_4_G" transform=" translate(49, 267.5) translate(1, -217.5)"><path id="_R_G_L_3_G_L_4_G_D_0_P_0" fill="#ffffff" fill-opacity="1" fill-rule="nonzero" d=" M248 185 C248,185 248,250 248,250 C248,250 -250,250 -250,250 C-250,250 -250,185 -250,185 C-250,185 248,185 248,185z "/><path id="_R_G_L_3_G_L_4_G_D_1_P_0" stroke="#ebc596" stroke-linecap="round" stroke-linejoin="round" fill="none" stroke-width="0" stroke-opacity="1" d=" M248 185 C248,185 248,250 248,250 C248,250 -250,250 -250,250 C-250,250 -250,185 -250,185 C-250,185 248,185 248,185z "/></g></g><g id="_R_G_L_3_G_L_3_G_N_1_T_0" transform=" translate(250.25, 250.249) translate(-50.25, -50.249)"><g id="_R_G_L_3_G_L_3_G" transform=" translate(49, 157.5) translate(1, -217.5)"><path id="_R_G_L_3_G_L_3_G_D_0_P_0" fill="#ebc596" fill-opacity="1" fill-rule="nonzero" d=" M248 185 C248,185 248,250 248,250 C248,250 -250,250 -250,250 C-250,250 -250,185 -250,185 C-250,185 248,185 248,185z "/><path id="_R_G_L_3_G_L_3_G_D_1_P_0" stroke="#ebc596" stroke-linecap="round" stroke-linejoin="round" fill="none" stroke-width="0" stroke-opacity="1" d=" M248 185 C248,185 248,250 248,250 C248,250 -250,250 -250,250 C-250,250 -250,185 -250,185 C-250,185 248,185 248,185z "/></g></g><g id="_R_G_L_3_G_L_2_G_N_1_T_0" transform=" translate(250.25, 250.249) translate(-50.25, -50.249)"><g id="_R_G_L_3_G_L_2_G" transform=" translate(49, 48.5) translate(1, -217.5)"><path id="_R_G_L_3_G_L_2_G_D_0_P_0" fill="#ffffff" fill-opacity="1" fill-rule="nonzero" d=" M248 185 C248,185 248,250 248,250 C248,250 -250,250 -250,250 C-250,250 -250,185 -250,185 C-250,185 248,185 248,185z "/><path id="_R_G_L_3_G_L_2_G_D_1_P_0" stroke="#ebc596" stroke-linecap="round" stroke-linejoin="round" fill="none" stroke-width="0" stroke-opacity="1" d=" M248 185 C248,185 248,250 248,250 C248,250 -250,250 -250,250 C-250,250 -250,185 -250,185 C-250,185 248,185 248,185z "/></g></g><g id="_R_G_L_3_G_L_1_G_N_1_T_0" transform=" translate(250.25, 250.249) translate(-50.25, -50.249)"><g id="_R_G_L_3_G_L_1_G" transform=" translate(49, -59.5) translate(1, -217.5)"><path id="_R_G_L_3_G_L_1_G_D_0_P_0" fill="#ebc596" fill-opacity="1" fill-rule="nonzero" d=" M248 185 C248,185 248,250 248,250 C248,250 -250,250 -250,250 C-250,250 -250,185 -250,185 C-250,185 248,185 248,185z "/><path id="_R_G_L_3_G_L_1_G_D_1_P_0" stroke="#ebc596" stroke-linecap="round" stroke-linejoin="round" fill="none" stroke-width="0" stroke-opacity="1" d=" M248 185 C248,185 248,250 248,250 C248,250 -250,250 -250,250 C-250,250 -250,185 -250,185 C-250,185 248,185 248,185z "/></g></g><g id="_R_G_L_3_G_L_0_G_N_1_T_0" transform=" translate(250.25, 250.249) translate(-50.25, -50.249)"><g id="_R_G_L_3_G_L_0_G" transform=" translate(49, -167.5) translate(1, -217.5)"><path id="_R_G_L_3_G_L_0_G_D_0_P_0" fill="#ffffff" fill-opacity="1" fill-rule="nonzero" d=" M248 185 C248,185 248,250 248,250 C248,250 -250,250 -250,250 C-250,250 -250,185 -250,185 C-250,185 248,185 248,185z "/><path id="_R_G_L_3_G_L_0_G_D_1_P_0" stroke="#ebc596" stroke-linecap="round" stroke-linejoin="round" fill="none" stroke-width="0" stroke-opacity="1" d=" M248 185 C248,185 248,250 248,250 C248,250 -250,250 -250,250 C-250,250 -250,185 -250,185 C-250,185 248,185 248,185z "/></g></g></g></g><g id="_R_G_L_2_G_N_1_T_0" transform=" translate(401, 413) translate(0, 0)"><g id="_R_G_L_2_G" transform=" translate(40.25, -172.5) scale(0.205, 0.205) translate(-250, -250)"><g id="_R_G_L_2_G_L_11_G_N_13_T_0" transform=" translate(374.5, 374) scale(0.508, 0.508) translate(0, 0)"><g id="_R_G_L_2_G_L_11_G" transform=" translate(0, 0) translate(-11, -6)"><path id="_R_G_L_2_G_L_11_G_D_0_P_0" fill="#87603c" fill-opacity="1" fill-rule="nonzero" d=" M11 -240 C146.77,-240 257,-129.77 257,6 C257,141.77 146.77,252 11,252 C-124.77,252 -235,141.77 -235,6 C-235,-129.77 -124.77,-240 11,-240z "/><path id="_R_G_L_2_G_L_11_G_D_1_P_0" stroke="#ff00a2" stroke-linecap="round" stroke-linejoin="round" fill="none" stroke-width="0" stroke-opacity="1" d=" M11 -240 C146.77,-240 257,-129.77 257,6 C257,141.77 146.77,252 11,252 C-124.77,252 -235,141.77 -235,6 C-235,-129.77 -124.77,-240 11,-240z "/></g></g><g id="_R_G_L_2_G_L_10_G_N_13_T_0" transform=" translate(374.5, 374) scale(0.508, 0.508) translate(0, 0)"><g id="_R_G_L_2_G_L_10_G" transform=" translate(0, 0) scale(0.33, 0.33) translate(-11, -6)"><path id="_R_G_L_2_G_L_10_G_D_0_P_0" fill="#ebc596" fill-opacity="1" fill-rule="nonzero" d=" M11 -240 C146.77,-240 257,-129.77 257,6 C257,141.77 146.77,252 11,252 C-124.77,252 -235,141.77 -235,6 C-235,-129.77 -124.77,-240 11,-240z "/><path id="_R_G_L_2_G_L_10_G_D_1_P_0" stroke="#ff00a2" stroke-linecap="round" stroke-linejoin="round" fill="none" stroke-width="0" stroke-opacity="1" d=" M11 -240 C146.77,-240 257,-129.77 257,6 C257,141.77 146.77,252 11,252 C-124.77,252 -235,141.77 -235,6 C-235,-129.77 -124.77,-240 11,-240z "/></g></g><g id="_R_G_L_2_G_L_9_G_N_13_T_0_M"><g id="_R_G_L_2_G_L_9_G_N_13_T_0" transform=" translate(374.5, 374) scale(0.508, 0.508) translate(0, 0)"><g id="_R_G_L_2_G_L_9_G" opacity="0" transform=" translate(0, 0) translate(-11, -6)"><path id="_R_G_L_2_G_L_9_G_D_0_P_0" fill="#87603c" fill-opacity="1" fill-rule="nonzero" d=" M11 -240 C146.77,-240 257,-129.77 257,6 C257,141.77 146.77,252 11,252 C-124.77,252 -235,141.77 -235,6 C-235,-129.77 -124.77,-240 11,-240z "/><path id="_R_G_L_2_G_L_9_G_D_1_P_0" stroke="#ff00a2" stroke-linecap="round" stroke-linejoin="round" fill="none" stroke-width="0" stroke-opacity="1" d=" M11 -240 C146.77,-240 257,-129.77 257,6 C257,141.77 146.77,252 11,252 C-124.77,252 -235,141.77 -235,6 C-235,-129.77 -124.77,-240 11,-240z "/></g></g></g><g id="_R_G_L_2_G_L_8_G_N_9_T_0" transform=" translate(373.5, 126) scale(0.508, 0.508) translate(0, 0)"><g id="_R_G_L_2_G_L_8_G" transform=" translate(0, 0) translate(-11, -6)"><path id="_R_G_L_2_G_L_8_G_D_0_P_0" fill="#87603c" fill-opacity="1" fill-rule="nonzero" d=" M11 -240 C146.77,-240 257,-129.77 257,6 C257,141.77 146.77,252 11,252 C-124.77,252 -235,141.77 -235,6 C-235,-129.77 -124.77,-240 11,-240z "/><path id="_R_G_L_2_G_L_8_G_D_1_P_0" stroke="#ff00a2" stroke-linecap="round" stroke-linejoin="round" fill="none" stroke-width="0" stroke-opacity="1" d=" M11 -240 C146.77,-240 257,-129.77 257,6 C257,141.77 146.77,252 11,252 C-124.77,252 -235,141.77 -235,6 C-235,-129.77 -124.77,-240 11,-240z "/></g></g><g id="_R_G_L_2_G_L_7_G_N_9_T_0" transform=" translate(373.5, 126) scale(0.508, 0.508) translate(0, 0)"><g id="_R_G_L_2_G_L_7_G" transform=" translate(0, 0) scale(0.33, 0.33) translate(-11, -6)"><path id="_R_G_L_2_G_L_7_G_D_0_P_0" fill="#ebc596" fill-opacity="1" fill-rule="nonzero" d=" M11 -240 C146.77,-240 257,-129.77 257,6 C257,141.77 146.77,252 11,252 C-124.77,252 -235,141.77 -235,6 C-235,-129.77 -124.77,-240 11,-240z "/><path id="_R_G_L_2_G_L_7_G_D_1_P_0" stroke="#ff00a2" stroke-linecap="round" stroke-linejoin="round" fill="none" stroke-width="0" stroke-opacity="1" d=" M11 -240 C146.77,-240 257,-129.77 257,6 C257,141.77 146.77,252 11,252 C-124.77,252 -235,141.77 -235,6 C-235,-129.77 -124.77,-240 11,-240z "/></g></g><g id="_R_G_L_2_G_L_6_G_N_9_T_0_M"><g id="_R_G_L_2_G_L_6_G_N_9_T_0" transform=" translate(373.5, 126) scale(0.508, 0.508) translate(0, 0)"><g id="_R_G_L_2_G_L_6_G" opacity="0" transform=" translate(0, 0) translate(-11, -6)"><path id="_R_G_L_2_G_L_6_G_D_0_P_0" fill="#87603c" fill-opacity="1" fill-rule="nonzero" d=" M11 -240 C146.77,-240 257,-129.77 257,6 C257,141.77 146.77,252 11,252 C-124.77,252 -235,141.77 -235,6 C-235,-129.77 -124.77,-240 11,-240z "/><path id="_R_G_L_2_G_L_6_G_D_1_P_0" stroke="#ff00a2" stroke-linecap="round" stroke-linejoin="round" fill="none" stroke-width="0" stroke-opacity="1" d=" M11 -240 C146.77,-240 257,-129.77 257,6 C257,141.77 146.77,252 11,252 C-124.77,252 -235,141.77 -235,6 C-235,-129.77 -124.77,-240 11,-240z "/></g></g></g><g id="_R_G_L_2_G_L_5_G_N_5_T_0" transform=" translate(127, 374) scale(0.508, 0.508) translate(0, 0)"><g id="_R_G_L_2_G_L_5_G" transform=" translate(0, 0) translate(-11, -6)"><path id="_R_G_L_2_G_L_5_G_D_0_P_0" fill="#87603c" fill-opacity="1" fill-rule="nonzero" d=" M11 -240 C146.77,-240 257,-129.77 257,6 C257,141.77 146.77,252 11,252 C-124.77,252 -235,141.77 -235,6 C-235,-129.77 -124.77,-240 11,-240z "/><path id="_R_G_L_2_G_L_5_G_D_1_P_0" stroke="#ff00a2" stroke-linecap="round" stroke-linejoin="round" fill="none" stroke-width="0" stroke-opacity="1" d=" M11 -240 C146.77,-240 257,-129.77 257,6 C257,141.77 146.77,252 11,252 C-124.77,252 -235,141.77 -235,6 C-235,-129.77 -124.77,-240 11,-240z "/></g></g><g id="_R_G_L_2_G_L_4_G_N_5_T_0" transform=" translate(127, 374) scale(0.508, 0.508) translate(0, 0)"><g id="_R_G_L_2_G_L_4_G" transform=" translate(0, 0) scale(0.33, 0.33) translate(-11, -6)"><path id="_R_G_L_2_G_L_4_G_D_0_P_0" fill="#ebc596" fill-opacity="1" fill-rule="nonzero" d=" M11 -240 C146.77,-240 257,-129.77 257,6 C257,141.77 146.77,252 11,252 C-124.77,252 -235,141.77 -235,6 C-235,-129.77 -124.77,-240 11,-240z "/><path id="_R_G_L_2_G_L_4_G_D_1_P_0" stroke="#ff00a2" stroke-linecap="round" stroke-linejoin="round" fill="none" stroke-width="0" stroke-opacity="1" d=" M11 -240 C146.77,-240 257,-129.77 257,6 C257,141.77 146.77,252 11,252 C-124.77,252 -235,141.77 -235,6 C-235,-129.77 -124.77,-240 11,-240z "/></g></g><g id="_R_G_L_2_G_L_3_G_N_5_T_0_M"><g id="_R_G_L_2_G_L_3_G_N_5_T_0" transform=" translate(127, 374) scale(0.508, 0.508) translate(0, 0)"><g id="_R_G_L_2_G_L_3_G" opacity="0" transform=" translate(0, 0) translate(-11, -6)"><path id="_R_G_L_2_G_L_3_G_D_0_P_0" fill="#87603c" fill-opacity="1" fill-rule="nonzero" d=" M11 -240 C146.77,-240 257,-129.77 257,6 C257,141.77 146.77,252 11,252 C-124.77,252 -235,141.77 -235,6 C-235,-129.77 -124.77,-240 11,-240z "/><path id="_R_G_L_2_G_L_3_G_D_1_P_0" stroke="#ff00a2" stroke-linecap="round" stroke-linejoin="round" fill="none" stroke-width="0" stroke-opacity="1" d=" M11 -240 C146.77,-240 257,-129.77 257,6 C257,141.77 146.77,252 11,252 C-124.77,252 -235,141.77 -235,6 C-235,-129.77 -124.77,-240 11,-240z "/></g></g></g><g id="_R_G_L_2_G_L_2_G_N_1_T_0" transform=" translate(125.5, 125) scale(0.508, 0.508) translate(0, 0)"><g id="_R_G_L_2_G_L_2_G" transform=" translate(0, 0) translate(-11, -6)"><path id="_R_G_L_2_G_L_2_G_D_0_P_0" fill="#87603c" fill-opacity="1" fill-rule="nonzero" d=" M11 -240 C146.77,-240 257,-129.77 257,6 C257,141.77 146.77,252 11,252 C-124.77,252 -235,141.77 -235,6 C-235,-129.77 -124.77,-240 11,-240z "/><path id="_R_G_L_2_G_L_2_G_D_1_P_0" stroke="#ff00a2" stroke-linecap="round" stroke-linejoin="round" fill="none" stroke-width="0" stroke-opacity="1" d=" M11 -240 C146.77,-240 257,-129.77 257,6 C257,141.77 146.77,252 11,252 C-124.77,252 -235,141.77 -235,6 C-235,-129.77 -124.77,-240 11,-240z "/></g></g><g id="_R_G_L_2_G_L_1_G_N_1_T_0" transform=" translate(125.5, 125) scale(0.508, 0.508) translate(0, 0)"><g id="_R_G_L_2_G_L_1_G" transform=" translate(0, 0) scale(0.33, 0.33) translate(-11, -6)"><path id="_R_G_L_2_G_L_1_G_D_0_P_0" fill="#ebc596" fill-opacity="1" fill-rule="nonzero" d=" M11 -240 C146.77,-240 257,-129.77 257,6 C257,141.77 146.77,252 11,252 C-124.77,252 -235,141.77 -235,6 C-235,-129.77 -124.77,-240 11,-240z "/><path id="_R_G_L_2_G_L_1_G_D_1_P_0" stroke="#ff00a2" stroke-linecap="round" stroke-linejoin="round" fill="none" stroke-width="0" stroke-opacity="1" d=" M11 -240 C146.77,-240 257,-129.77 257,6 C257,141.77 146.77,252 11,252 C-124.77,252 -235,141.77 -235,6 C-235,-129.77 -124.77,-240 11,-240z "/></g></g><g id="_R_G_L_2_G_L_0_G_N_1_T_0_M"><g id="_R_G_L_2_G_L_0_G_N_1_T_0" transform=" translate(125.5, 125) scale(0.508, 0.508) translate(0, 0)"><g id="_R_G_L_2_G_L_0_G" opacity="0" transform=" translate(0, 0) translate(-11, -6)"><path id="_R_G_L_2_G_L_0_G_D_0_P_0" fill="#87603c" fill-opacity="1" fill-rule="nonzero" d=" M11 -240 C146.77,-240 257,-129.77 257,6 C257,141.77 146.77,252 11,252 C-124.77,252 -235,141.77 -235,6 C-235,-129.77 -124.77,-240 11,-240z "/><path id="_R_G_L_2_G_L_0_G_D_1_P_0" stroke="#ff00a2" stroke-linecap="round" stroke-linejoin="round" fill="none" stroke-width="0" stroke-opacity="1" d=" M11 -240 C146.77,-240 257,-129.77 257,6 C257,141.77 146.77,252 11,252 C-124.77,252 -235,141.77 -235,6 C-235,-129.77 -124.77,-240 11,-240z "/></g></g></g></g></g><g id="_R_G_L_1_G_N_1_T_0" transform=" translate(401, 413) translate(0, 0)"><g id="_R_G_L_1_G" transform=" translate(145.75, -170.25) scale(0.205, 0.205) translate(-250, -250)"><g id="_R_G_L_1_G_L_2_G" transform=" translate(250, 250) translate(-11, -6)"><path id="_R_G_L_1_G_L_2_G_D_0_P_0" fill="#ebc596" fill-opacity="1" fill-rule="nonzero" d=" M11 -240 C146.77,-240 257,-129.77 257,6 C257,141.77 146.77,252 11,252 C-124.77,252 -235,141.77 -235,6 C-235,-129.77 -124.77,-240 11,-240z "/><path id="_R_G_L_1_G_L_2_G_D_1_P_0" stroke="#ff00a2" stroke-linecap="round" stroke-linejoin="round" fill="none" stroke-width="0" stroke-opacity="1" d=" M11 -240 C146.77,-240 257,-129.77 257,6 C257,141.77 146.77,252 11,252 C-124.77,252 -235,141.77 -235,6 C-235,-129.77 -124.77,-240 11,-240z "/></g><g id="_R_G_L_1_G_L_1_G" transform=" translate(250, 250) scale(0.33, 0.33) translate(-11, -6)"><path id="_R_G_L_1_G_L_1_G_D_0_P_0" fill="#87603c" fill-opacity="1" fill-rule="nonzero" d=" M11 -240 C146.77,-240 257,-129.77 257,6 C257,141.77 146.77,252 11,252 C-124.77,252 -235,141.77 -235,6 C-235,-129.77 -124.77,-240 11,-240z "/><path id="_R_G_L_1_G_L_1_G_D_1_P_0" stroke="#ff00a2" stroke-linecap="round" stroke-linejoin="round" fill="none" stroke-width="0" stroke-opacity="1" d=" M11 -240 C146.77,-240 257,-129.77 257,6 C257,141.77 146.77,252 11,252 C-124.77,252 -235,141.77 -235,6 C-235,-129.77 -124.77,-240 11,-240z "/></g><g id="_R_G_L_1_G_L_0_G_M"><g id="_R_G_L_1_G_L_0_G" opacity="0" transform=" translate(250, 250) translate(-11, -6)"><path id="_R_G_L_1_G_L_0_G_D_0_P_0" fill="#ebc596" fill-opacity="1" fill-rule="nonzero" d=" M11 -240 C146.77,-240 257,-129.77 257,6 C257,141.77 146.77,252 11,252 C-124.77,252 -235,141.77 -235,6 C-235,-129.77 -124.77,-240 11,-240z "/><path id="_R_G_L_1_G_L_0_G_D_1_P_0" stroke="#ff00a2" stroke-linecap="round" stroke-linejoin="round" fill="none" stroke-width="0" stroke-opacity="1" d=" M11 -240 C146.77,-240 257,-129.77 257,6 C257,141.77 146.77,252 11,252 C-124.77,252 -235,141.77 -235,6 C-235,-129.77 -124.77,-240 11,-240z "/></g></g></g></g><g id="_R_G_L_0_G_N_1_T_0" transform=" translate(401, 413) translate(0, 0)"><g id="_R_G_L_0_G" transform=" translate(147, -273) scale(0.205, 0.205) translate(-250, -250)"><g id="_R_G_L_0_G_L_3_G" transform=" translate(375.384, 375.384)"><path id="_R_G_L_0_G_L_3_G_D_0_P_0" fill="#ebc596" fill-opacity="1" fill-rule="nonzero" d=" M-240.92 -240.92 C-240.92,-240.92 -240.92,240.92 -240.92,240.92 C25.19,240.92 240.92,25.19 240.92,-240.92 C240.92,-240.92 -240.92,-240.92 -240.92,-240.92z "/><path id="_R_G_L_0_G_L_3_G_D_1_P_0" stroke="#ebc596" stroke-linecap="round" stroke-linejoin="round" fill="none" stroke-width="0" stroke-opacity="1" d=" M-240.92 -240.92 C-240.92,-240.92 -240.92,240.92 -240.92,240.92 C25.19,240.92 240.92,25.19 240.92,-240.92 C240.92,-240.92 -240.92,-240.92 -240.92,-240.92z "/></g><g id="_R_G_L_0_G_L_2_G" transform=" translate(375.384, 124.616)"><path id="_R_G_L_0_G_L_2_G_D_0_P_0" fill="#ffffff" fill-opacity="1" fill-rule="nonzero" d=" M-240.92 -240.92 C-240.92,-240.92 -240.92,240.92 -240.92,240.92 C25.19,240.92 240.92,25.19 240.92,-240.92 C240.92,-240.92 -240.92,-240.92 -240.92,-240.92z "/><path id="_R_G_L_0_G_L_2_G_D_1_P_0" stroke="#ebc596" stroke-linecap="round" stroke-linejoin="round" fill="none" stroke-width="0" stroke-opacity="1" d=" M-240.92 -240.92 C-240.92,-240.92 -240.92,240.92 -240.92,240.92 C25.19,240.92 240.92,25.19 240.92,-240.92 C240.92,-240.92 -240.92,-240.92 -240.92,-240.92z "/></g><g id="_R_G_L_0_G_L_1_G" transform=" translate(124.616, 124.616)"><path id="_R_G_L_0_G_L_1_G_D_0_P_0" fill="#ebc596" fill-opacity="1" fill-rule="nonzero" d=" M-240.92 -240.92 C-240.92,-240.92 -240.92,240.92 -240.92,240.92 C25.19,240.92 240.92,25.19 240.92,-240.92 C240.92,-240.92 -240.92,-240.92 -240.92,-240.92z "/><path id="_R_G_L_0_G_L_1_G_D_1_P_0" stroke="#ebc596" stroke-linecap="round" stroke-linejoin="round" fill="none" stroke-width="0" stroke-opacity="1" d=" M-240.92 -240.92 C-240.92,-240.92 -240.92,240.92 -240.92,240.92 C25.19,240.92 240.92,25.19 240.92,-240.92 C240.92,-240.92 -240.92,-240.92 -240.92,-240.92z "/></g><g id="_R_G_L_0_G_L_0_G" transform=" translate(124.616, 375.384)"><path id="_R_G_L_0_G_L_0_G_D_0_P_0" fill="#ffffff" fill-opacity="1" fill-rule="nonzero" d=" M-240.92 -240.92 C-240.92,-240.92 -240.92,240.92 -240.92,240.92 C25.19,240.92 240.92,25.19 240.92,-240.92 C240.92,-240.92 -240.92,-240.92 -240.92,-240.92z "/><path id="_R_G_L_0_G_L_0_G_D_1_P_0" stroke="#ebc596" stroke-linecap="round" stroke-linejoin="round" fill="none" stroke-width="0" stroke-opacity="1" d=" M-240.92 -240.92 C-240.92,-240.92 -240.92,240.92 -240.92,240.92 C25.19,240.92 240.92,25.19 240.92,-240.92 C240.92,-240.92 -240.92,-240.92 -240.92,-240.92z "/></g></g></g></g><g id="time_group"/></svg>